<?xml version="1.0" encoding="utf-8"?>
<!-- Generator: Adobe Illustrator 27.5.0, SVG Export Plug-In . SVG Version: 6.00 Build 0)  -->
<svg version="1.1" xmlns="http://www.w3.org/2000/svg" xmlns:xlink="http://www.w3.org/1999/xlink" x="0px" y="0px"
	 viewBox="0 0 500 500" style="enable-background:new 0 0 500 500;" xml:space="preserve">
<g id="Background_Complete">
	<g>
		<path style="fill:#E0E0E0;" d="M269.509,46.01l3.849,1.447l-3.342,0.948c-1.115,0.316-2,1.167-2.361,2.269l-1.209,3.696
			l-1.487-3.707c-0.369-0.92-1.113-1.639-2.045-1.978l-3.381-1.228l3.662-1.504c0.886-0.364,1.583-1.077,1.927-1.971l1.323-3.437
			l0.949,3.196C267.705,44.786,268.488,45.626,269.509,46.01z"/>
		<path style="fill:#E0E0E0;" d="M378.499,139.859l3.849,1.447l-3.342,0.948c-1.115,0.316-2,1.167-2.361,2.269l-1.209,3.696
			l-1.487-3.707c-0.369-0.92-1.113-1.64-2.045-1.978l-3.381-1.227l3.662-1.505c0.886-0.364,1.583-1.077,1.927-1.971l1.323-3.437
			l0.949,3.196C376.696,138.635,377.478,139.475,378.499,139.859z"/>
		<path style="fill:#E0E0E0;" d="M393.116,267.865l3.849,1.447l-3.342,0.948c-1.115,0.316-2,1.167-2.361,2.269l-1.209,3.696
			l-1.487-3.707c-0.369-0.92-1.113-1.639-2.045-1.978l-3.381-1.227l3.662-1.505c0.886-0.364,1.583-1.077,1.927-1.971l1.323-3.437
			l0.949,3.196C391.313,266.641,392.095,267.481,393.116,267.865z"/>
		<path style="fill:#E0E0E0;" d="M349.319,224.602l2.633,0.99l-2.286,0.648c-0.763,0.216-1.368,0.798-1.615,1.552l-0.827,2.529
			l-1.017-2.536c-0.253-0.63-0.761-1.122-1.399-1.353l-2.313-0.84l2.505-1.029c0.606-0.249,1.083-0.737,1.319-1.348l0.905-2.351
			l0.649,2.186C348.085,223.765,348.62,224.34,349.319,224.602z"/>
		<path style="fill:#E0E0E0;" d="M152.649,229.331l2.633,0.99l-2.286,0.648c-0.763,0.216-1.368,0.798-1.615,1.552l-0.827,2.529
			l-1.017-2.536c-0.253-0.63-0.761-1.122-1.399-1.353l-2.313-0.84l2.505-1.029c0.606-0.249,1.083-0.737,1.319-1.348l0.905-2.351
			l0.649,2.186C151.415,228.494,151.95,229.068,152.649,229.331z"/>
		<path style="fill:#E0E0E0;" d="M112.575,296.336l2.633,0.99l-2.286,0.648c-0.763,0.216-1.368,0.798-1.615,1.552l-0.827,2.529
			l-1.017-2.536c-0.253-0.629-0.761-1.122-1.399-1.353l-2.313-0.84l2.505-1.029c0.606-0.249,1.083-0.737,1.318-1.348l0.905-2.351
			l0.649,2.186C111.341,295.499,111.877,296.073,112.575,296.336z"/>
		<path style="fill:#E0E0E0;" d="M153.41,32.186l3.849,1.447l-3.342,0.948c-1.115,0.316-2,1.167-2.361,2.269l-1.209,3.696
			l-1.487-3.707c-0.369-0.92-1.113-1.639-2.045-1.978l-3.381-1.228l3.662-1.504c0.886-0.364,1.583-1.077,1.927-1.971l1.323-3.437
			l0.949,3.196C151.607,30.962,152.389,31.802,153.41,32.186z"/>
		<path style="fill:#E0E0E0;" d="M434.822,190.837l3.849,1.447l-3.342,0.948c-1.115,0.316-2,1.167-2.361,2.269l-1.209,3.696
			l-1.487-3.707c-0.369-0.92-1.113-1.64-2.045-1.978l-3.381-1.227l3.662-1.505c0.886-0.364,1.583-1.077,1.927-1.971l1.323-3.437
			l0.949,3.196C433.019,189.613,433.801,190.453,434.822,190.837z"/>
		<path style="fill:#E0E0E0;" d="M424.096,391.196l3.849,1.447l-3.342,0.948c-1.115,0.316-2,1.167-2.361,2.269l-1.209,3.696
			l-1.487-3.707c-0.369-0.92-1.113-1.639-2.045-1.978l-3.381-1.227l3.662-1.505c0.886-0.364,1.583-1.077,1.927-1.971l1.323-3.437
			l0.949,3.196C422.292,389.972,423.074,390.812,424.096,391.196z"/>
		<path style="fill:#E0E0E0;" d="M128.416,416.625l3.849,1.447l-3.342,0.948c-1.115,0.316-2,1.167-2.361,2.269l-1.209,3.696
			l-1.487-3.707c-0.369-0.92-1.113-1.639-2.045-1.978l-3.381-1.228l3.662-1.504c0.886-0.364,1.583-1.077,1.927-1.971l1.323-3.437
			l0.949,3.196C126.612,415.401,127.395,416.241,128.416,416.625z"/>
		<path style="fill:#E0E0E0;" d="M108.814,178.709l3.849,1.447l-3.342,0.948c-1.115,0.316-2,1.167-2.361,2.269l-1.209,3.696
			l-1.487-3.707c-0.369-0.92-1.113-1.639-2.045-1.978l-3.381-1.227l3.662-1.505c0.886-0.364,1.583-1.077,1.927-1.971l1.323-3.437
			l0.949,3.196C107.01,177.485,107.793,178.325,108.814,178.709z"/>
		<path style="fill:#E0E0E0;" d="M52.02,287.65l3.849,1.447l-3.342,0.948c-1.115,0.316-2,1.167-2.361,2.269l-1.209,3.696
			l-1.487-3.707c-0.369-0.92-1.113-1.639-2.045-1.978l-3.381-1.228l3.662-1.504c0.886-0.364,1.583-1.077,1.927-1.971l1.323-3.437
			l0.949,3.196C50.216,286.426,50.999,287.266,52.02,287.65z"/>
		<path style="fill:#E0E0E0;" d="M307.645,98.775l1.45,0.545l-1.259,0.357c-0.42,0.119-0.753,0.439-0.889,0.854l-0.455,1.392
			l-0.56-1.396c-0.139-0.346-0.419-0.617-0.77-0.745l-1.273-0.462l1.379-0.567c0.334-0.137,0.596-0.406,0.726-0.742l0.498-1.294
			l0.357,1.204C306.966,98.314,307.261,98.631,307.645,98.775z"/>
		<path style="fill:#E0E0E0;" d="M335.511,163.587l1.45,0.545l-1.259,0.357c-0.42,0.119-0.753,0.439-0.889,0.854l-0.455,1.392
			l-0.56-1.396c-0.139-0.346-0.419-0.617-0.77-0.745l-1.273-0.462l1.379-0.567c0.334-0.137,0.596-0.406,0.726-0.742l0.498-1.294
			l0.357,1.204C334.832,163.126,335.126,163.442,335.511,163.587z"/>
		<path style="fill:#E0E0E0;" d="M84.417,235.279l1.45,0.545l-1.259,0.357c-0.42,0.119-0.753,0.439-0.889,0.854l-0.455,1.392
			l-0.56-1.396c-0.139-0.347-0.419-0.618-0.77-0.745l-1.273-0.462l1.379-0.567c0.334-0.137,0.596-0.406,0.726-0.742l0.498-1.294
			l0.357,1.204C83.738,234.818,84.033,235.135,84.417,235.279z"/>
		<path style="fill:#E0E0E0;" d="M83.205,367.048l3.198,1.202l-2.777,0.787c-0.927,0.263-1.662,0.969-1.962,1.885l-1.005,3.071
			l-1.236-3.08c-0.307-0.765-0.925-1.362-1.699-1.643l-2.809-1.02l3.042-1.25c0.736-0.302,1.316-0.895,1.601-1.638l1.1-2.856
			l0.788,2.655C81.707,366.032,82.357,366.73,83.205,367.048z"/>
		<path style="fill:#E0E0E0;" d="M329.63,64.381l2.124,0.799l-1.844,0.523c-0.616,0.174-1.104,0.644-1.303,1.252l-0.667,2.04
			l-0.821-2.046c-0.204-0.508-0.614-0.905-1.128-1.091l-1.866-0.677l2.021-0.83c0.489-0.201,0.874-0.594,1.064-1.088l0.73-1.897
			l0.524,1.764C328.635,63.705,329.066,64.169,329.63,64.381z"/>
		<path style="fill:#E0E0E0;" d="M115.984,113.841l2.124,0.799l-1.844,0.523c-0.616,0.174-1.104,0.644-1.303,1.252l-0.667,2.04
			l-0.821-2.046c-0.204-0.508-0.614-0.905-1.128-1.091l-1.866-0.677l2.021-0.83c0.489-0.201,0.874-0.594,1.064-1.088l0.73-1.897
			l0.524,1.764C114.989,113.166,115.421,113.629,115.984,113.841z"/>
		<path style="fill:#E0E0E0;" d="M429.635,323.169l2.124,0.799l-1.844,0.523c-0.616,0.175-1.104,0.644-1.303,1.252l-0.667,2.04
			l-0.821-2.046c-0.204-0.508-0.614-0.905-1.128-1.091l-1.866-0.677l2.021-0.83c0.489-0.201,0.874-0.594,1.064-1.088l0.73-1.897
			l0.524,1.764C428.64,322.494,429.072,322.957,429.635,323.169z"/>
		<path style="fill:#E0E0E0;" d="M367.782,434.428l2.124,0.799l-1.844,0.523c-0.616,0.175-1.104,0.644-1.303,1.252l-0.667,2.04
			l-0.821-2.046c-0.204-0.508-0.614-0.905-1.128-1.092l-1.866-0.677l2.021-0.83c0.489-0.201,0.874-0.594,1.064-1.088l0.73-1.897
			l0.524,1.764C366.787,433.752,367.219,434.216,367.782,434.428z"/>
	</g>
	<g>
		<g>
			<g>
				<g>
					<g>
						<g>
							<g>
								<g>
									<path style="fill:#EBEBEB;" d="M313.58,250.648c-44.063-0.412-83.937-0.785-112.84-1.055
										c-14.419-0.068-26.091-0.123-34.197-0.161c-4.016,0.009-7.14,0.016-9.298,0.021c-1.041,0.014-1.843,0.024-2.418,0.032
										c-0.545,0.013-0.824,0.028-0.824,0.044c0,0.016,0.279,0.034,0.823,0.052c0.575,0.013,1.377,0.032,2.418,0.056
										c2.157,0.026,5.282,0.065,9.297,0.114c8.105,0.043,19.778,0.104,34.196,0.18c28.904,0.018,68.781,0.043,112.846,0.07
										c44.043-0.005,83.926,0.052,112.799,0.259c14.436,0.101,26.119,0.234,34.194,0.386c4.037,0.076,7.172,0.155,9.297,0.235
										c2.125,0.08,3.241,0.161,3.241,0.238c-0.001,0.077-1.117,0.147-3.243,0.206c-2.126,0.059-5.261,0.107-9.299,0.142
										c-8.076,0.071-19.76,0.088-34.196,0.045C397.502,251.432,357.62,251.091,313.58,250.648z"/>
								</g>
							</g>
						</g>
					</g>
				</g>
			</g>
		</g>
		<g>
			<g>
				<g>
					<g>
						<g>
							<g>
								<g>
									<path style="fill:#EBEBEB;" d="M312.702,260.311c-43.461-7.065-82.791-13.459-111.299-18.093
										c-14.233-2.243-25.755-4.06-33.756-5.321c-3.968-0.596-7.056-1.06-9.188-1.38c-1.031-0.143-1.825-0.253-2.394-0.332
										c-0.541-0.069-0.819-0.096-0.822-0.079c-0.003,0.017,0.27,0.077,0.805,0.178c0.566,0.1,1.355,0.24,2.379,0.422
										c2.127,0.352,5.207,0.863,9.165,1.519c8,1.267,19.521,3.091,33.752,5.345c28.551,4.381,67.939,10.424,111.465,17.103
										c43.509,6.642,82.9,12.717,111.388,17.283c14.245,2.28,25.765,4.177,33.716,5.548c3.976,0.685,7.06,1.238,9.146,1.64
										c2.087,0.401,3.176,0.651,3.163,0.729c-0.013,0.077-1.127-0.021-3.237-0.283c-2.11-0.262-5.215-0.686-9.21-1.261
										c-7.989-1.148-19.534-2.895-33.788-5.118C395.478,273.77,356.135,267.406,312.702,260.311z"/>
								</g>
							</g>
						</g>
					</g>
				</g>
			</g>
		</g>
		<g>
			<g>
				<g>
					<g>
						<g>
							<g>
								<g>
									<path style="fill:#EBEBEB;" d="M310.276,269.722c-41.773-13.631-79.576-25.966-106.977-34.908
										c-13.692-4.393-24.775-7.951-32.472-10.42c-3.822-1.195-6.797-2.126-8.851-2.768c-0.995-0.299-1.761-0.529-2.311-0.693
										c-0.522-0.151-0.793-0.22-0.798-0.204c-0.006,0.016,0.254,0.118,0.766,0.299c0.542,0.186,1.299,0.445,2.281,0.782
										c2.043,0.674,5.002,1.65,8.804,2.905c7.695,2.476,18.776,6.041,32.464,10.445c27.485,8.695,65.404,20.69,107.305,33.945
										c41.891,13.216,79.806,25.243,107.199,34.112c13.698,4.432,24.766,8.07,32.396,10.641c3.815,1.286,6.771,2.304,8.766,3.021
										c1.995,0.717,3.03,1.131,3.005,1.206c-0.026,0.075-1.111-0.192-3.152-0.773c-2.041-0.581-5.039-1.475-8.891-2.653
										c-7.703-2.356-18.822-5.847-32.538-10.224C389.837,295.686,352.018,283.378,310.276,269.722z"/>
								</g>
							</g>
						</g>
					</g>
				</g>
			</g>
		</g>
		<g>
			<g>
				<g>
					<g>
						<g>
							<g>
								<g>
									<path style="fill:#EBEBEB;" d="M306.36,278.634c-39.048-19.847-74.384-37.807-99.997-50.825
										c-12.81-6.433-23.18-11.641-30.381-15.257c-3.581-1.766-6.368-3.14-8.291-4.089c-0.935-0.448-1.654-0.792-2.169-1.039
										c-0.491-0.229-0.747-0.339-0.755-0.324c-0.008,0.015,0.232,0.154,0.708,0.412c0.505,0.266,1.21,0.637,2.126,1.12
										c1.908,0.978,4.673,2.393,8.225,4.213c7.198,3.621,17.564,8.837,30.369,15.279c25.734,12.792,61.236,30.439,100.468,49.94
										c39.228,19.461,74.722,37.139,100.338,50.086c12.81,6.471,23.152,11.755,30.271,15.46c3.56,1.852,6.314,3.309,8.169,4.321
										c1.855,1.012,2.811,1.578,2.774,1.647c-0.037,0.069-1.064-0.361-2.986-1.248c-1.921-0.887-4.737-2.229-8.349-3.982
										c-7.225-3.506-17.639-8.655-30.476-15.075C380.729,316.436,345.372,298.5,306.36,278.634z"/>
								</g>
							</g>
						</g>
					</g>
				</g>
			</g>
		</g>
		<g>
			<g>
				<g>
					<g>
						<g>
							<g>
								<g>
									<path style="fill:#EBEBEB;" d="M301.053,286.842c-35.375-25.535-67.389-48.643-90.593-65.392
										c-11.617-8.3-21.022-15.02-27.553-19.686c-3.253-2.288-5.784-4.069-7.532-5.299c-0.85-0.584-1.506-1.034-1.975-1.356
										c-0.448-0.301-0.683-0.448-0.694-0.435c-0.01,0.013,0.205,0.188,0.633,0.514c0.457,0.34,1.093,0.813,1.92,1.429
										c1.728,1.256,4.23,3.074,7.447,5.411c6.527,4.67,15.927,11.396,27.539,19.704c23.361,16.544,55.589,39.367,91.202,64.588
										c35.615,25.181,67.83,48.034,91.049,64.714c11.611,8.338,20.976,15.128,27.412,19.869c3.218,2.37,5.704,4.228,7.373,5.509
										c1.67,1.281,2.523,1.985,2.475,2.048c-0.047,0.063-0.993-0.519-2.749-1.686c-1.755-1.168-4.32-2.921-7.606-5.201
										c-6.573-4.56-16.03-11.228-27.677-19.519C368.428,335.477,336.39,312.391,301.053,286.842z"/>
								</g>
							</g>
						</g>
					</g>
				</g>
			</g>
		</g>
		<g>
			<g>
				<g>
					<g>
						<g>
							<g>
								<g>
									<path style="fill:#EBEBEB;" d="M294.495,294.144c-30.859-30.571-58.785-58.237-79.027-78.29
										c-10.148-9.955-18.363-18.015-24.067-23.611c-2.847-2.752-5.062-4.894-6.592-6.373c-0.747-0.706-1.322-1.249-1.734-1.638
										c-0.395-0.365-0.603-0.546-0.615-0.535c-0.012,0.012,0.172,0.216,0.544,0.603c0.397,0.405,0.95,0.969,1.668,1.702
										c1.506,1.502,3.687,3.676,6.491,6.471c5.7,5.6,13.91,13.665,24.05,23.627c20.428,19.874,48.611,47.292,79.755,77.589
										c31.152,30.259,59.317,57.704,79.584,77.691c10.136,9.991,18.301,18.115,23.9,23.771c2.799,2.828,4.958,5.039,6.402,6.556
										c1.444,1.518,2.174,2.342,2.117,2.397c-0.057,0.055-0.898-0.663-2.445-2.081c-1.547-1.419-3.8-3.539-6.681-6.288
										c-5.763-5.499-14.038-13.515-24.216-23.466C353.268,352.371,325.314,324.723,294.495,294.144z"/>
								</g>
							</g>
						</g>
					</g>
				</g>
			</g>
		</g>
		<g>
			<g>
				<g>
					<g>
						<g>
							<g>
								<g>
									<path style="fill:#EBEBEB;" d="M286.85,300.366c-25.591-34.864-48.749-66.415-65.535-89.284
										c-8.431-11.368-15.256-20.571-19.996-26.962c-2.372-3.149-4.218-5.6-5.492-7.291c-0.625-0.81-1.106-1.434-1.451-1.88
										c-0.331-0.42-0.508-0.631-0.522-0.621c-0.014,0.01,0.135,0.24,0.44,0.679c0.327,0.459,0.783,1.1,1.375,1.933
										c1.247,1.711,3.054,4.189,5.376,7.373c4.735,6.394,11.553,15.601,19.977,26.975c16.999,22.72,40.451,54.064,66.368,88.701
										c25.931,34.6,49.361,65.968,66.183,88.775c8.413,11.402,15.178,20.661,19.804,27.094c2.313,3.217,4.091,5.727,5.275,7.445
										c1.184,1.718,1.772,2.643,1.707,2.688c-0.065,0.046-0.781-0.79-2.082-2.426c-1.301-1.635-3.188-4.07-5.594-7.221
										c-4.813-6.303-11.705-15.472-20.166-26.841C335.588,366.77,312.4,335.232,286.85,300.366z"/>
								</g>
							</g>
						</g>
					</g>
				</g>
			</g>
		</g>
		<g>
			<g>
				<g>
					<g>
						<g>
							<g>
								<g>
									<path style="fill:#EBEBEB;" d="M278.301,305.352c-19.666-38.325-37.463-73.007-50.362-98.146
										c-6.499-12.509-11.76-22.636-15.413-29.668c-1.836-3.471-3.266-6.171-4.252-8.036c-0.487-0.895-0.862-1.583-1.131-2.077
										c-0.26-0.465-0.401-0.7-0.417-0.692c-0.015,0.008,0.095,0.257,0.325,0.737c0.249,0.504,0.596,1.206,1.047,2.119
										c0.957,1.879,2.342,4.601,4.122,8.1c3.648,7.035,8.901,17.165,15.391,29.679c13.136,25.023,31.259,59.546,51.285,97.694
										c20.046,38.114,38.144,72.656,51.09,97.739c6.475,12.54,11.668,22.713,15.201,29.771c1.767,3.529,3.119,6.278,4.012,8.155
										c0.892,1.876,1.325,2.88,1.253,2.915c-0.072,0.035-0.645-0.899-1.668-2.712c-1.023-1.813-2.494-4.504-4.364-7.982
										c-3.74-6.956-9.073-17.06-15.601-29.575C315.755,378.347,297.926,343.673,278.301,305.352z"/>
								</g>
							</g>
						</g>
					</g>
				</g>
			</g>
		</g>
		<g>
			<g>
				<g>
					<g>
						<g>
							<g>
								<g>
									<path style="fill:#EBEBEB;" d="M269.052,308.974c-13.216-40.855-25.176-77.826-33.845-104.625
										c-4.393-13.347-7.949-24.152-10.419-31.656c-1.252-3.708-2.227-6.593-2.899-8.586c-0.337-0.958-0.595-1.696-0.781-2.224
										c-0.182-0.499-0.283-0.753-0.3-0.748c-0.016,0.005,0.052,0.269,0.202,0.778c0.164,0.536,0.393,1.283,0.691,2.253
										c0.64,2.002,1.568,4.902,2.759,8.629c2.464,7.505,6.011,18.313,10.394,31.663c8.922,26.72,21.231,63.583,34.833,104.318
										c13.628,40.704,25.909,77.583,34.633,104.333c4.365,13.374,7.845,24.214,10.192,31.725
										c1.173,3.755,2.064,6.677,2.641,8.667c0.577,1.99,0.842,3.047,0.764,3.071c-0.077,0.024-0.492-0.986-1.208-2.933
										c-0.717-1.946-1.734-4.829-3.018-8.55c-2.568-7.441-6.198-18.235-10.62-31.592
										C294.22,386.787,282.228,349.819,269.052,308.974z"/>
								</g>
							</g>
						</g>
					</g>
				</g>
			</g>
		</g>
		<g>
			<g>
				<g>
					<g>
						<g>
							<g>
								<g>
									<path style="fill:#EBEBEB;" d="M259.328,311.136c-6.438-42.367-12.265-80.707-16.488-108.497
										c-2.177-13.853-3.94-25.067-5.163-32.855c-0.636-3.854-1.131-6.852-1.472-8.923c-0.177-0.997-0.313-1.766-0.411-2.316
										c-0.098-0.521-0.157-0.786-0.174-0.784c-0.017,0.003,0.008,0.273,0.074,0.799c0.075,0.554,0.181,1.327,0.318,2.33
										c0.308,2.075,0.755,5.081,1.329,8.944c1.218,7.788,2.972,19.004,5.139,32.858c4.484,27.752,10.672,66.038,17.508,108.346
										c6.867,42.281,13.023,80.579,17.308,108.33c2.145,13.875,3.828,25.112,4.929,32.888c0.551,3.888,0.957,6.91,1.206,8.963
										c0.248,2.053,0.338,3.137,0.259,3.149c-0.08,0.012-0.326-1.049-0.718-3.081c-0.392-2.032-0.93-5.034-1.595-8.905
										c-1.331-7.741-3.168-18.956-5.372-32.822C271.588,391.828,265.729,353.486,259.328,311.136z"/>
								</g>
							</g>
						</g>
					</g>
				</g>
			</g>
		</g>
		<g>
			<g>
				<g>
					<g>
						<g>
							<g>
								<g>
									<path style="fill:#EBEBEB;" d="M249.375,311.793c0.397-42.825,0.756-81.579,1.016-109.67
										c0.061-14.013,0.11-25.357,0.144-33.235c-0.012-3.903-0.021-6.939-0.027-9.036c-0.015-1.012-0.026-1.792-0.035-2.35
										c-0.013-0.53-0.028-0.801-0.045-0.801c-0.017,0-0.035,0.271-0.053,0.8c-0.013,0.559-0.032,1.338-0.056,2.35
										c-0.026,2.097-0.063,5.133-0.111,9.036c-0.039,7.878-0.095,19.222-0.164,33.235c-0.001,28.092-0.002,66.848-0.003,109.674
										c0.032,42.805-0.002,81.568-0.197,109.629c-0.095,14.03-0.225,25.386-0.376,33.233c-0.075,3.924-0.155,6.97-0.236,9.036
										c-0.081,2.066-0.164,3.151-0.243,3.15c-0.079,0-0.152-1.086-0.214-3.152c-0.062-2.066-0.114-5.113-0.152-9.038
										c-0.078-7.848-0.103-19.204-0.067-33.235C248.619,393.357,248.945,354.596,249.375,311.793z"/>
								</g>
							</g>
						</g>
					</g>
				</g>
			</g>
		</g>
		<g>
			<g>
				<g>
					<g>
						<g>
							<g>
								<g>
									<path style="fill:#EBEBEB;" d="M239.431,310.946c7.242-42.244,13.796-80.472,18.546-108.183
										c2.299-13.834,4.161-25.033,5.453-32.81c0.611-3.857,1.086-6.859,1.415-8.931c0.146-1.002,0.259-1.774,0.34-2.327
										c0.071-0.525,0.098-0.796,0.081-0.798c-0.017-0.003-0.079,0.262-0.182,0.782c-0.103,0.55-0.247,1.317-0.433,2.313
										c-0.361,2.067-0.885,5.061-1.558,8.909c-1.298,7.776-3.168,18.974-5.478,32.806
										c-4.489,27.751-10.683,66.036-17.527,108.343c-6.806,42.29-13.033,80.578-17.712,108.269
										c-2.337,13.846-4.282,25.043-5.687,32.772c-0.702,3.865-1.269,6.862-1.681,8.89c-0.412,2.028-0.668,3.087-0.748,3.074
										c-0.08-0.013,0.021-1.096,0.289-3.147c0.268-2.051,0.703-5.069,1.291-8.952c1.176-7.765,2.966-18.987,5.245-32.842
										C225.635,391.404,232.159,353.163,239.431,310.946z"/>
								</g>
							</g>
						</g>
					</g>
				</g>
			</g>
		</g>
		<g>
			<g>
				<g>
					<g>
						<g>
							<g>
								<g>
									<path style="fill:#EBEBEB;" d="M229.747,308.595c13.999-40.608,26.667-77.355,35.85-103.992
										c4.512-13.309,8.165-24.084,10.701-31.566c1.228-3.716,2.183-6.607,2.843-8.604c0.307-0.967,0.543-1.712,0.712-2.246
										c0.155-0.508,0.225-0.771,0.209-0.776c-0.017-0.005-0.121,0.247-0.307,0.744c-0.191,0.527-0.457,1.262-0.803,2.217
										c-0.692,1.986-1.695,4.863-2.983,8.559c-2.543,7.48-6.204,18.252-10.727,31.558c-8.929,26.718-21.247,63.578-34.859,104.31
										c-13.572,40.722-25.923,77.579-35.031,104.208c-4.551,13.315-8.287,24.075-10.928,31.492
										c-1.32,3.708-2.367,6.582-3.102,8.521c-0.736,1.94-1.161,2.946-1.239,2.921c-0.077-0.025,0.197-1.079,0.793-3.064
										c0.596-1.984,1.514-4.898,2.724-8.643c2.419-7.488,6.004-18.296,10.499-31.63
										C203.082,385.936,215.722,349.171,229.747,308.595z"/>
								</g>
							</g>
						</g>
					</g>
				</g>
			</g>
		</g>
		<g>
			<g>
				<g>
					<g>
						<g>
							<g>
								<g>
									<path style="fill:#EBEBEB;" d="M220.574,304.794c20.396-37.963,38.853-72.317,52.232-97.218
										c6.611-12.454,11.963-22.536,15.679-29.536c1.815-3.482,3.227-6.191,4.202-8.061c0.46-0.908,0.815-1.608,1.068-2.109
										c0.235-0.478,0.348-0.726,0.333-0.734c-0.015-0.008-0.159,0.226-0.423,0.689c-0.274,0.491-0.655,1.177-1.151,2.067
										c-1.005,1.855-2.46,4.543-4.33,7.997c-3.722,6.998-9.081,17.076-15.702,29.525c-13.145,25.018-31.281,59.534-51.321,97.676
										c-20,38.137-38.166,72.645-51.472,97.549c-6.65,12.453-12.08,22.509-15.888,29.43c-1.904,3.461-3.401,6.139-4.441,7.942
										c-1.039,1.803-1.621,2.733-1.692,2.697c-0.072-0.036,0.371-1.035,1.282-2.903c0.911-1.868,2.291-4.605,4.092-8.117
										c3.603-7.024,8.894-17.149,15.492-29.629C181.726,377.097,200.158,342.722,220.574,304.794z"/>
								</g>
							</g>
						</g>
					</g>
				</g>
			</g>
		</g>
		<g>
			<g>
				<g>
					<g>
						<g>
							<g>
								<g>
									<path style="fill:#EBEBEB;" d="M212.126,299.641c26.251-34.397,50.007-65.525,67.227-88.087
										c8.533-11.296,15.441-20.441,20.238-26.791c2.353-3.163,4.183-5.624,5.447-7.323c0.6-0.827,1.063-1.464,1.394-1.92
										c0.309-0.436,0.461-0.664,0.447-0.674c-0.014-0.01-0.193,0.199-0.529,0.616c-0.349,0.444-0.837,1.063-1.469,1.867
										c-1.291,1.68-3.16,4.114-5.563,7.241c-4.801,6.347-11.716,15.487-20.257,26.777
										c-17.008,22.714-40.471,54.051-66.399,88.679c-25.888,34.63-49.381,65.954-66.529,88.53
										c-8.572,11.29-15.552,20.396-20.427,26.654c-2.437,3.129-4.347,5.546-5.664,7.169c-1.317,1.623-2.041,2.453-2.106,2.406
										c-0.065-0.046,0.533-0.966,1.733-2.673c1.2-1.706,3.003-4.2,5.346-7.396c4.688-6.391,11.543-15.587,20.067-26.911
										C162.126,365.153,185.86,334.001,212.126,299.641z"/>
								</g>
							</g>
						</g>
					</g>
				</g>
			</g>
		</g>
		<g>
			<g>
				<g>
					<g>
						<g>
							<g>
								<g>
									<path style="fill:#EBEBEB;" d="M204.608,293.272c31.436-30.011,59.884-57.169,80.505-76.854
										c10.237-9.868,18.524-17.857,24.279-23.405c2.83-2.769,5.033-4.923,6.553-6.411c0.726-0.726,1.284-1.286,1.684-1.686
										c0.375-0.384,0.562-0.587,0.549-0.598c-0.012-0.012-0.222,0.167-0.621,0.529c-0.416,0.386-0.996,0.924-1.75,1.622
										c-1.544,1.465-3.78,3.586-6.653,6.312c-5.759,5.544-14.051,13.527-24.295,23.389
										c-20.436,19.867-48.629,47.275-79.783,77.561c-31.115,30.295-59.336,57.686-79.888,77.395
										c-10.274,9.857-18.627,17.797-24.443,23.242c-2.908,2.723-5.181,4.822-6.742,6.227c-1.561,1.405-2.409,2.114-2.465,2.059
										c-0.057-0.055,0.681-0.873,2.14-2.378c1.459-1.504,3.639-3.695,6.466-6.497c5.653-5.604,13.897-13.652,24.129-23.55
										C144.734,350.43,173.164,323.244,204.608,293.272z"/>
								</g>
							</g>
						</g>
					</g>
				</g>
			</g>
		</g>
		<g>
			<g>
				<g>
					<g>
						<g>
							<g>
								<g>
									<path style="fill:#EBEBEB;" d="M198.202,285.846c35.857-24.893,68.305-47.42,91.825-63.748
										c11.692-8.201,21.157-14.84,27.729-19.451c3.239-2.307,5.759-4.103,7.499-5.342c0.833-0.608,1.474-1.076,1.934-1.411
										c0.432-0.322,0.648-0.495,0.638-0.508c-0.01-0.014-0.246,0.132-0.698,0.428c-0.473,0.318-1.132,0.762-1.988,1.338
										c-1.76,1.213-4.308,2.971-7.583,5.229c-6.576,4.606-16.046,11.238-27.743,19.432
										c-23.366,16.536-55.603,39.349-91.224,64.558c-35.584,25.223-67.845,48.015-91.301,64.378
										c-11.727,8.184-21.249,14.765-27.865,19.264c-3.308,2.25-5.89,3.98-7.657,5.131c-1.767,1.151-2.718,1.724-2.765,1.661
										c-0.047-0.063,0.813-0.76,2.494-2.025c1.682-1.266,4.186-3.101,7.427-5.441c6.482-4.681,15.912-11.386,27.604-19.616
										C129.908,333.256,162.344,310.7,198.202,285.846z"/>
								</g>
							</g>
						</g>
					</g>
				</g>
			</g>
		</g>
		<g>
			<g>
				<g>
					<g>
						<g>
							<g>
								<g>
									<path style="fill:#EBEBEB;" d="M193.066,277.54c39.421-19.137,75.094-36.456,100.952-49.009
										c12.867-6.324,23.284-11.443,30.517-14.999c3.57-1.787,6.348-3.178,8.265-4.138c0.92-0.474,1.629-0.839,2.137-1.101
										c0.479-0.253,0.72-0.39,0.712-0.405c-0.008-0.015-0.265,0.092-0.758,0.317c-0.518,0.242-1.241,0.58-2.179,1.019
										c-1.933,0.931-4.733,2.279-8.331,4.012c-7.236,3.55-17.656,8.662-30.528,14.977
										c-25.739,12.782-61.248,30.417-100.487,49.904c-39.203,19.507-74.733,37.117-100.533,49.715
										c-12.899,6.301-23.363,11.354-30.622,14.792c-3.63,1.719-6.458,3.035-8.388,3.904c-1.93,0.868-2.962,1.289-2.998,1.219
										c-0.036-0.07,0.925-0.628,2.789-1.623c1.864-0.995,4.633-2.427,8.21-4.246c7.155-3.64,17.548-8.828,30.42-15.181
										C117.983,313.987,153.649,296.638,193.066,277.54z"/>
								</g>
							</g>
						</g>
					</g>
				</g>
			</g>
		</g>
		<g>
			<g>
				<g>
					<g>
						<g>
							<g>
								<g>
									<path style="fill:#EBEBEB;" d="M189.334,268.553c42.028-12.871,80.061-24.518,107.629-32.96
										c13.73-4.278,24.846-7.741,32.564-10.146c3.815-1.219,6.783-2.168,8.832-2.823c0.985-0.327,1.744-0.58,2.288-0.76
										c0.513-0.177,0.774-0.276,0.769-0.292c-0.005-0.016-0.276,0.05-0.8,0.196c-0.551,0.16-1.319,0.383-2.317,0.673
										c-2.06,0.624-5.043,1.527-8.877,2.687c-7.721,2.399-18.839,5.854-32.573,10.121c-27.487,8.688-65.408,20.674-107.313,33.92
										c-41.872,13.271-79.81,25.23-107.328,33.726c-13.758,4.25-24.91,7.64-32.636,9.925c-3.863,1.143-6.869,2.01-8.916,2.572
										c-2.047,0.562-3.134,0.82-3.159,0.745c-0.025-0.075,1.014-0.479,3.017-1.177c2.002-0.698,4.967-1.689,8.795-2.939
										c7.655-2.501,18.759-6.036,32.499-10.341C109.286,293.064,147.316,281.385,189.334,268.553z"/>
								</g>
							</g>
						</g>
					</g>
				</g>
			</g>
		</g>
		<g>
			<g>
				<g>
					<g>
						<g>
							<g>
								<g>
									<path style="fill:#EBEBEB;" d="M187.103,259.104c43.588-6.284,83.033-11.971,111.624-16.093
										c14.252-2.124,25.789-3.845,33.801-5.039c3.965-0.62,7.05-1.103,9.18-1.436c1.026-0.173,1.816-0.305,2.383-0.401
										c0.536-0.096,0.809-0.154,0.807-0.17c-0.003-0.017-0.281,0.008-0.822,0.072c-0.57,0.074-1.365,0.177-2.397,0.31
										c-2.135,0.301-5.227,0.737-9.201,1.297c-8.013,1.189-19.552,2.9-33.806,5.015c-28.551,4.376-67.941,10.413-111.468,17.084
										c-43.5,6.701-82.902,12.708-111.452,16.89c-14.275,2.094-25.836,3.736-33.836,4.812c-4,0.538-7.109,0.935-9.221,1.177
										c-2.112,0.243-3.228,0.331-3.24,0.253c-0.012-0.078,1.08-0.317,3.17-0.7c2.09-0.383,5.179-0.907,9.161-1.556
										c7.964-1.298,19.502-3.091,33.768-5.242C104.085,271.071,143.532,265.352,187.103,259.104z"/>
								</g>
							</g>
						</g>
					</g>
				</g>
			</g>
		</g>
		<g>
			<g>
				<g>
					<g>
						<g>
							<g>
								<g>
									<path style="fill:#EBEBEB;" d="M186.421,249.432c44.063,0.359,83.938,0.683,112.842,0.919
										c14.419,0.05,26.091,0.091,34.197,0.12c4.016-0.014,7.14-0.025,9.298-0.032c1.041-0.015,1.843-0.027,2.418-0.035
										c0.544-0.013,0.824-0.028,0.824-0.045c0-0.016-0.279-0.033-0.824-0.051c-0.575-0.013-1.376-0.03-2.418-0.053
										c-2.158-0.024-5.282-0.058-9.297-0.103c-8.105-0.033-19.778-0.08-34.197-0.139c-28.904,0.017-68.78,0.04-112.845,0.066
										c-44.043,0.058-83.927,0.049-112.8-0.123c-14.436-0.084-26.12-0.203-34.194-0.344c-4.037-0.071-7.172-0.146-9.297-0.224
										c-2.126-0.078-3.242-0.157-3.241-0.234c0-0.077,1.117-0.148,3.243-0.21c2.126-0.062,5.262-0.114,9.299-0.154
										c8.076-0.081,19.76-0.112,34.196-0.086C102.497,248.749,142.38,249.041,186.421,249.432z"/>
								</g>
							</g>
						</g>
					</g>
				</g>
			</g>
		</g>
		<g>
			<g>
				<g>
					<g>
						<g>
							<g>
								<g>
									<path style="fill:#EBEBEB;" d="M187.286,239.767c43.47,7.012,82.809,13.357,111.323,17.956
										c14.236,2.226,25.76,4.028,33.763,5.279c3.969,0.591,7.058,1.051,9.19,1.369c1.031,0.142,1.825,0.251,2.395,0.329
										c0.54,0.069,0.819,0.095,0.821,0.078c0.003-0.017-0.27-0.076-0.805-0.176c-0.566-0.1-1.355-0.239-2.38-0.419
										c-2.127-0.35-5.208-0.857-9.167-1.508c-8.002-1.257-19.525-3.067-33.759-5.304c-28.556-4.346-67.953-10.341-111.487-16.965
										c-43.518-6.588-82.917-12.615-111.411-17.145c-14.248-2.262-25.77-4.145-33.724-5.506c-3.977-0.68-7.061-1.229-9.148-1.628
										c-2.087-0.399-3.177-0.647-3.164-0.725c0.013-0.078,1.128,0.019,3.238,0.279c2.11,0.259,5.216,0.68,9.211,1.249
										c7.99,1.138,19.538,2.871,33.795,5.076C104.492,226.411,143.843,232.726,187.286,239.767z"/>
								</g>
							</g>
						</g>
					</g>
				</g>
			</g>
		</g>
		<g>
			<g>
				<g>
					<g>
						<g>
							<g>
								<g>
									<path style="fill:#EBEBEB;" d="M189.699,230.354c41.791,13.579,79.61,25.868,107.023,34.775
										c13.697,4.377,24.786,7.92,32.486,10.38c3.824,1.191,6.799,2.117,8.854,2.757c0.996,0.297,1.762,0.526,2.312,0.691
										c0.523,0.15,0.793,0.219,0.799,0.202c0.005-0.016-0.254-0.117-0.766-0.298c-0.543-0.185-1.299-0.444-2.282-0.779
										c-2.044-0.672-5.004-1.644-8.808-2.894c-7.698-2.466-18.784-6.018-32.478-10.405
										c-27.497-8.661-65.431-20.609-107.349-33.812c-41.908-13.164-79.839-25.144-107.244-33.98
										c-13.703-4.415-24.776-8.039-32.41-10.601c-3.817-1.281-6.774-2.296-8.77-3.01c-1.996-0.714-3.032-1.127-3.007-1.202
										c0.025-0.075,1.111,0.19,3.153,0.769c2.042,0.578,5.041,1.469,8.895,2.642c7.706,2.346,18.829,5.824,32.552,10.183
										C110.104,204.488,147.94,216.749,189.699,230.354z"/>
								</g>
							</g>
						</g>
					</g>
				</g>
			</g>
		</g>
		<g>
			<g>
				<g>
					<g>
						<g>
							<g>
								<g>
									<path style="fill:#EBEBEB;" d="M193.604,221.436c39.074,19.798,74.433,37.715,100.063,50.702
										c12.818,6.417,23.195,11.613,30.4,15.22c3.584,1.762,6.372,3.133,8.297,4.079c0.935,0.447,1.655,0.79,2.171,1.037
										c0.492,0.228,0.748,0.338,0.755,0.323c0.008-0.015-0.232-0.154-0.709-0.411c-0.505-0.265-1.211-0.636-2.128-1.117
										c-1.91-0.975-4.676-2.388-8.231-4.203c-7.203-3.613-17.576-8.815-30.389-15.242c-25.75-12.76-61.276-30.364-100.533-49.816
										c-39.253-19.413-74.77-37.048-100.403-49.963c-12.818-6.455-23.167-11.726-30.291-15.422
										c-3.562-1.848-6.318-3.302-8.174-4.311c-1.856-1.009-2.813-1.574-2.776-1.643c0.037-0.069,1.065,0.36,2.987,1.245
										c1.922,0.884,4.739,2.223,8.354,3.972c7.23,3.497,17.65,8.634,30.495,15.038
										C119.185,183.726,154.566,201.618,193.604,221.436z"/>
								</g>
							</g>
						</g>
					</g>
				</g>
			</g>
		</g>
		<g>
			<g>
				<g>
					<g>
						<g>
							<g>
								<g>
									<path style="fill:#EBEBEB;" d="M198.901,213.222c35.408,25.492,67.452,48.56,90.677,65.281
										c11.628,8.286,21.042,14.994,27.578,19.652c3.256,2.284,5.789,4.062,7.538,5.289c0.852,0.583,1.508,1.032,1.977,1.353
										c0.449,0.301,0.684,0.448,0.694,0.434c0.01-0.014-0.205-0.187-0.634-0.513c-0.457-0.339-1.094-0.812-1.922-1.427
										c-1.729-1.254-4.234-3.069-7.454-5.402c-6.534-4.662-15.942-11.377-27.564-19.671
										c-23.382-16.515-55.64-39.299-91.285-64.477c-35.648-25.138-67.892-47.951-91.133-64.603
										c-11.622-8.324-20.996-15.102-27.438-19.835c-3.221-2.366-5.71-4.221-7.381-5.5c-1.671-1.279-2.525-1.982-2.477-2.045
										c0.048-0.063,0.994,0.517,2.751,1.683c1.757,1.166,4.324,2.916,7.613,5.192c6.578,4.552,16.045,11.209,27.702,19.486
										C131.463,164.669,163.53,187.717,198.901,213.222z"/>
								</g>
							</g>
						</g>
					</g>
				</g>
			</g>
		</g>
		<g>
			<g>
				<g>
					<g>
						<g>
							<g>
								<g>
									<path style="fill:#EBEBEB;" d="M205.449,205.912c30.898,30.534,58.86,58.165,79.127,78.194
										c10.161,9.943,18.386,17.992,24.098,23.582c2.851,2.749,5.068,4.888,6.6,6.365c0.748,0.705,1.323,1.247,1.736,1.636
										c0.396,0.365,0.604,0.546,0.616,0.534c0.012-0.012-0.172-0.216-0.545-0.603c-0.397-0.404-0.951-0.968-1.67-1.7
										c-1.508-1.499-3.692-3.672-6.499-6.462c-5.708-5.593-13.928-13.648-24.081-23.598
										c-20.454-19.849-48.673-47.232-79.855-77.492c-31.191-30.221-59.391-57.632-79.684-77.594
										c-10.149-9.979-18.324-18.092-23.93-23.742c-2.803-2.824-4.965-5.033-6.411-6.548c-1.446-1.516-2.177-2.34-2.12-2.395
										c0.057-0.055,0.899,0.662,2.447,2.079s3.805,3.534,6.689,6.28c5.77,5.491,14.056,13.498,24.247,23.436
										C146.601,147.756,174.59,175.37,205.449,205.912z"/>
								</g>
							</g>
						</g>
					</g>
				</g>
			</g>
		</g>
		<g>
			<g>
				<g>
					<g>
						<g>
							<g>
								<g>
									<path style="fill:#EBEBEB;" d="M213.085,199.681c25.635,34.833,48.835,66.355,65.65,89.204
										c8.446,11.358,15.283,20.553,20.03,26.937c2.376,3.146,4.225,5.594,5.501,7.285c0.626,0.809,1.108,1.432,1.454,1.879
										c0.332,0.42,0.509,0.63,0.523,0.62c0.014-0.01-0.136-0.24-0.441-0.678c-0.327-0.459-0.784-1.1-1.378-1.931
										c-1.25-1.709-3.059-4.185-5.385-7.366c-4.743-6.388-11.574-15.587-20.012-26.951
										c-17.029-22.699-40.522-54.015-66.482-88.619c-25.975-34.568-49.446-65.908-66.297-88.694
										c-8.428-11.391-15.205-20.642-19.839-27.07c-2.317-3.214-4.099-5.722-5.285-7.438c-1.186-1.716-1.776-2.64-1.711-2.686
										c0.065-0.046,0.782,0.789,2.086,2.423c1.303,1.634,3.193,4.066,5.603,7.215c4.821,6.296,11.725,15.458,20.201,26.816
										C164.262,133.337,187.491,164.846,213.085,199.681z"/>
								</g>
							</g>
						</g>
					</g>
				</g>
			</g>
		</g>
		<g>
			<g>
				<g>
					<g>
						<g>
							<g>
								<g>
									<path style="fill:#EBEBEB;" d="M221.628,194.684c19.716,38.301,37.558,72.96,50.49,98.084
										c6.515,12.501,11.789,22.622,15.452,29.649c1.841,3.469,3.273,6.167,4.263,8.031c0.488,0.894,0.864,1.583,1.134,2.076
										c0.261,0.465,0.402,0.7,0.418,0.692c0.016-0.008-0.095-0.257-0.326-0.737c-0.25-0.503-0.598-1.206-1.05-2.117
										c-0.959-1.878-2.348-4.599-4.133-8.094c-3.657-7.03-8.924-17.155-15.429-29.661
										c-13.169-25.007-31.336-59.507-51.412-97.631c-20.096-38.089-38.238-72.609-51.217-97.676
										c-6.492-12.532-11.697-22.699-15.24-29.752c-1.771-3.527-3.127-6.275-4.022-8.15c-0.895-1.875-1.329-2.878-1.257-2.914
										c0.072-0.035,0.647,0.898,1.671,2.71c1.025,1.812,2.5,4.501,4.374,7.977c3.749,6.952,9.095,17.049,15.64,29.555
										C184.08,121.735,201.953,156.387,221.628,194.684z"/>
								</g>
							</g>
						</g>
					</g>
				</g>
			</g>
		</g>
		<g>
			<g>
				<g>
					<g>
						<g>
							<g>
								<g>
									<path style="fill:#EBEBEB;" d="M230.873,191.051c13.27,40.839,25.278,77.795,33.983,104.583
										c4.41,13.342,7.981,24.142,10.46,31.643c1.257,3.706,2.235,6.591,2.91,8.582c0.338,0.958,0.598,1.695,0.784,2.223
										c0.182,0.499,0.284,0.752,0.301,0.747c0.017-0.005-0.052-0.269-0.203-0.778c-0.165-0.535-0.395-1.282-0.693-2.252
										c-0.643-2.002-1.574-4.9-2.771-8.626c-2.473-7.502-6.035-18.305-10.435-31.65c-8.957-26.709-21.314-63.557-34.969-104.275
										c-13.681-40.687-26.01-77.551-34.769-104.291c-4.383-13.369-7.877-24.205-10.234-31.712
										c-1.178-3.754-2.072-6.675-2.652-8.664c-0.58-1.989-0.846-3.046-0.768-3.07c0.077-0.024,0.493,0.986,1.212,2.931
										c0.719,1.946,1.74,4.827,3.03,8.546c2.578,7.438,6.222,18.228,10.661,31.579
										C205.602,113.269,217.643,150.222,230.873,191.051z"/>
								</g>
							</g>
						</g>
					</g>
				</g>
			</g>
		</g>
		<g>
			<g>
				<g>
					<g>
						<g>
							<g>
								<g>
									<path style="fill:#EBEBEB;" d="M240.594,188.877c6.493,42.359,12.369,80.691,16.629,108.477
										c2.195,13.85,3.972,25.062,5.206,32.848c0.641,3.853,1.139,6.85,1.484,8.921c0.178,0.997,0.315,1.765,0.414,2.316
										c0.099,0.521,0.159,0.786,0.176,0.784c0.017-0.003-0.009-0.273-0.075-0.799c-0.076-0.554-0.183-1.326-0.321-2.329
										c-0.311-2.075-0.762-5.08-1.341-8.942c-1.228-7.787-2.996-19-5.181-32.852c-4.521-27.746-10.757-66.025-17.649-108.325
										c-6.922-42.273-13.128-80.563-17.449-108.309c-2.163-13.872-3.86-25.108-4.972-32.882
										c-0.556-3.887-0.966-6.909-1.217-8.961c-0.251-2.053-0.343-3.137-0.263-3.149c0.08-0.012,0.327,1.049,0.722,3.08
										c0.395,2.031,0.937,5.033,1.607,8.903c1.341,7.74,3.193,18.952,5.415,32.816
										C228.228,108.2,234.137,146.535,240.594,188.877z"/>
								</g>
							</g>
						</g>
					</g>
				</g>
			</g>
		</g>
		<g>
			<g>
				<g>
					<g>
						<g>
							<g>
								<g>
									<path style="fill:#EBEBEB;" d="M250.545,188.208c-0.342,42.825-0.651,81.58-0.874,109.671
										c-0.043,14.013-0.077,25.358-0.102,33.235c0.017,3.903,0.03,6.939,0.039,9.036c0.016,1.012,0.029,1.791,0.037,2.35
										c0.014,0.529,0.03,0.801,0.047,0.801c0.017,0,0.034-0.271,0.052-0.801c0.013-0.558,0.03-1.338,0.053-2.35
										c0.023-2.097,0.057-5.133,0.1-9.036c0.029-7.878,0.07-19.222,0.121-33.235c-0.036-28.092-0.085-66.847-0.139-109.673
										c-0.087-42.805-0.103-81.568,0.056-109.629c0.077-14.031,0.192-25.386,0.333-33.233c0.07-3.924,0.146-6.971,0.225-9.036
										c0.079-2.066,0.16-3.151,0.239-3.15c0.079,0,0.153,1.086,0.218,3.152c0.065,2.066,0.12,5.114,0.164,9.038
										c0.088,7.848,0.127,19.204,0.11,33.235C251.195,106.643,250.919,145.404,250.545,188.208z"/>
								</g>
							</g>
						</g>
					</g>
				</g>
			</g>
		</g>
		<g>
			<g>
				<g>
					<g>
						<g>
							<g>
								<g>
									<path style="fill:#EBEBEB;" d="M260.49,189.042c-7.186,42.253-13.69,80.49-18.404,108.206
										c-2.281,13.837-4.128,25.039-5.41,32.817c-0.606,3.858-1.077,6.86-1.403,8.933c-0.145,1.002-0.257,1.774-0.337,2.328
										c-0.07,0.525-0.097,0.796-0.08,0.798c0.017,0.003,0.078-0.262,0.181-0.782c0.102-0.55,0.244-1.317,0.43-2.313
										c0.359-2.068,0.878-5.062,1.546-8.911c1.288-7.778,3.143-18.978,5.435-32.813c4.453-27.757,10.596-66.05,17.384-108.365
										c6.75-42.299,12.926-80.594,17.569-108.291C279.72,66.8,281.65,55.6,283.045,47.87c0.697-3.865,1.26-6.863,1.669-8.892
										c0.409-2.029,0.664-3.088,0.743-3.075c0.08,0.012-0.02,1.096-0.285,3.147c-0.265,2.051-0.696,5.07-1.279,8.953
										c-1.166,7.766-2.941,18.99-5.201,32.848C274.179,108.567,267.706,146.816,260.49,189.042z"/>
								</g>
							</g>
						</g>
					</g>
				</g>
			</g>
		</g>
		<g>
			<g>
				<g>
					<g>
						<g>
							<g>
								<g>
									<path style="fill:#EBEBEB;" d="M270.177,191.382c-13.945,40.625-26.564,77.389-35.712,104.037
										c-4.494,13.315-8.132,24.094-10.659,31.58c-1.223,3.717-2.174,6.61-2.831,8.607c-0.305,0.967-0.541,1.713-0.709,2.247
										c-0.154,0.508-0.224,0.771-0.208,0.776c0.017,0.005,0.121-0.247,0.307-0.745c0.19-0.528,0.455-1.263,0.8-2.218
										c0.689-1.987,1.688-4.865,2.972-8.563c2.533-7.484,6.179-18.26,10.684-31.572c8.893-26.729,21.163-63.605,34.72-104.354
										c13.518-40.739,25.819-77.612,34.892-104.252c4.533-13.321,8.255-24.086,10.886-31.506c1.316-3.71,2.358-6.585,3.091-8.525
										c0.733-1.94,1.158-2.947,1.235-2.922c0.078,0.025-0.195,1.08-0.789,3.065c-0.594,1.985-1.508,4.901-2.712,8.646
										c-2.409,7.492-5.98,18.304-10.457,31.643C296.74,114.007,284.148,150.787,270.177,191.382z"/>
								</g>
							</g>
						</g>
					</g>
				</g>
			</g>
		</g>
		<g>
			<g>
				<g>
					<g>
						<g>
							<g>
								<g>
									<path style="fill:#EBEBEB;" d="M279.355,195.171c-20.346,37.988-38.758,72.365-52.103,97.283
										c-6.595,12.462-11.934,22.551-15.641,29.556c-1.81,3.484-3.219,6.195-4.191,8.066c-0.459,0.909-0.812,1.609-1.065,2.11
										c-0.235,0.478-0.347,0.727-0.332,0.734c0.015,0.008,0.158-0.226,0.422-0.689c0.273-0.491,0.654-1.178,1.148-2.069
										c1.002-1.856,2.454-4.546,4.319-8.002c3.712-7.003,9.059-17.087,15.663-29.545c13.112-25.035,31.202-59.573,51.192-97.739
										c19.949-38.162,38.07-72.693,51.343-97.614c6.634-12.462,12.051-22.524,15.849-29.45c1.899-3.463,3.393-6.143,4.43-7.948
										c1.037-1.805,1.618-2.735,1.689-2.699c0.071,0.036-0.37,1.035-1.279,2.904c-0.909,1.869-2.285,4.608-4.081,8.122
										c-3.594,7.029-8.872,17.16-15.453,29.648C318.108,122.82,299.721,157.217,279.355,195.171z"/>
								</g>
							</g>
						</g>
					</g>
				</g>
			</g>
		</g>
		<g>
			<g>
				<g>
					<g>
						<g>
							<g>
								<g>
									<path style="fill:#EBEBEB;" d="M287.81,200.314c-26.206,34.429-49.922,65.586-67.111,88.171
										c-8.518,11.307-15.414,20.46-20.202,26.816c-2.349,3.166-4.176,5.629-5.437,7.33c-0.599,0.828-1.061,1.465-1.392,1.922
										c-0.309,0.436-0.46,0.665-0.446,0.675c0.014,0.01,0.192-0.199,0.527-0.617c0.349-0.444,0.835-1.064,1.467-1.869
										c1.289-1.682,3.155-4.117,5.553-7.247c4.793-6.353,11.696-15.501,20.222-26.802c16.978-22.735,40.4-54.101,66.283-88.761
										c25.842-34.662,49.295-66.015,66.413-88.613c8.557-11.301,15.526-20.415,20.391-26.679c2.433-3.132,4.34-5.552,5.655-7.177
										c1.315-1.625,2.038-2.455,2.103-2.409c0.065,0.046-0.532,0.966-1.73,2.675c-1.198,1.708-2.997,4.204-5.337,7.402
										c-4.679,6.397-11.522,15.601-20.031,26.936C337.724,134.74,314.031,165.921,287.81,200.314z"/>
								</g>
							</g>
						</g>
					</g>
				</g>
			</g>
		</g>
		<g>
			<g>
				<g>
					<g>
						<g>
							<g>
								<g>
									<path style="fill:#EBEBEB;" d="M295.336,206.673c-31.397,30.049-59.81,57.242-80.404,76.953
										c-10.224,9.881-18.501,17.881-24.248,23.435c-2.827,2.772-5.026,4.929-6.544,6.419c-0.725,0.727-1.283,1.287-1.682,1.688
										c-0.375,0.384-0.561,0.587-0.549,0.599c0.012,0.012,0.222-0.168,0.62-0.53c0.415-0.386,0.995-0.925,1.748-1.624
										c1.542-1.467,3.775-3.591,6.645-6.32c5.751-5.551,14.034-13.545,24.265-23.419c20.41-19.892,48.567-47.335,79.682-77.66
										c31.076-30.333,59.261-57.759,79.787-77.494c10.261-9.87,18.604-17.82,24.413-23.273c2.904-2.726,5.175-4.828,6.734-6.235
										c1.559-1.406,2.406-2.117,2.462-2.062c0.057,0.055-0.68,0.874-2.137,2.38c-1.457,1.506-3.634,3.7-6.457,6.505
										c-5.647,5.611-13.879,13.67-24.098,23.58C355.136,149.442,326.741,176.662,295.336,206.673z"/>
								</g>
							</g>
						</g>
					</g>
				</g>
			</g>
		</g>
		<g>
			<g>
				<g>
					<g>
						<g>
							<g>
								<g>
									<path style="fill:#EBEBEB;" d="M301.752,214.091c-35.824,24.937-68.243,47.504-91.741,63.862
										c-11.681,8.216-21.137,14.866-27.704,19.485c-3.236,2.311-5.753,4.11-7.492,5.351c-0.832,0.609-1.473,1.078-1.932,1.414
										c-0.431,0.323-0.648,0.495-0.638,0.509c0.01,0.014,0.246-0.132,0.697-0.429c0.472-0.318,1.131-0.763,1.986-1.34
										c1.758-1.216,4.304-2.976,7.576-5.239c6.57-4.614,16.031-11.258,27.718-19.466c23.344-16.565,55.551-39.417,91.14-64.671
										c35.551-25.267,67.782-48.099,91.217-64.491c11.716-8.199,21.229-14.791,27.84-19.299c3.305-2.254,5.885-3.987,7.65-5.141
										c1.765-1.154,2.716-1.728,2.763-1.664c0.047,0.063-0.812,0.761-2.492,2.029c-1.68,1.268-4.182,3.106-7.42,5.45
										c-6.476,4.69-15.897,11.405-27.579,19.651C369.983,166.597,337.578,189.193,301.752,214.091z"/>
								</g>
							</g>
						</g>
					</g>
				</g>
			</g>
		</g>
		<g>
			<g>
				<g>
					<g>
						<g>
							<g>
								<g>
									<path style="fill:#EBEBEB;" d="M306.899,222.39c-39.395,19.186-75.046,36.549-100.888,49.134
										c-12.858,6.34-23.268,11.473-30.497,15.037c-3.567,1.791-6.343,3.185-8.26,4.148c-0.92,0.475-1.628,0.841-2.135,1.103
										c-0.478,0.254-0.72,0.391-0.712,0.406c0.008,0.015,0.264-0.092,0.758-0.317c0.518-0.243,1.24-0.582,2.178-1.022
										c1.932-0.933,4.73-2.285,8.326-4.022c7.231-3.559,17.645-8.684,30.508-15.014c25.722-12.815,61.208-30.493,100.421-50.029
										c39.177-19.556,74.684-37.211,100.467-49.84c12.891-6.317,23.348-11.383,30.603-14.831
										c3.628-1.724,6.454-3.044,8.383-3.914c1.929-0.871,2.961-1.293,2.997-1.223c0.037,0.07-0.924,0.629-2.787,1.626
										c-1.863,0.997-4.63,2.433-8.205,4.257c-7.15,3.648-17.536,8.85-30.4,15.219C381.933,185.85,346.29,203.243,306.899,222.39z
										"/>
								</g>
							</g>
						</g>
					</g>
				</g>
			</g>
		</g>
		<g>
			<g>
				<g>
					<g>
						<g>
							<g>
								<g>
									<path style="fill:#EBEBEB;" d="M310.643,231.373c-42.011,12.923-80.029,24.618-107.585,33.095
										c-13.725,4.295-24.836,7.772-32.551,10.187c-3.813,1.224-6.78,2.176-8.829,2.834c-0.985,0.329-1.743,0.582-2.287,0.763
										c-0.513,0.177-0.774,0.277-0.768,0.293c0.005,0.016,0.276-0.051,0.8-0.197c0.55-0.161,1.318-0.385,2.316-0.675
										c2.059-0.626,5.041-1.533,8.873-2.699c7.717-2.409,18.831-5.877,32.559-10.162c27.476-8.723,65.381-20.756,107.268-34.054
										c41.855-13.323,79.777-25.33,107.284-33.86c13.753-4.268,24.9-7.672,32.622-9.966c3.861-1.147,6.866-2.018,8.913-2.583
										c2.046-0.565,3.133-0.824,3.158-0.749c0.025,0.075-1.014,0.48-3.015,1.18c-2.002,0.7-4.965,1.695-8.791,2.95
										c-7.652,2.51-18.751,6.059-32.485,10.382C390.658,206.762,352.644,218.488,310.643,231.373z"/>
								</g>
							</g>
						</g>
					</g>
				</g>
			</g>
		</g>
		<g>
			<g>
				<g>
					<g>
						<g>
							<g>
								<g>
									<path style="fill:#EBEBEB;" d="M312.886,240.819c-43.58,6.338-83.017,12.074-111.603,16.231
										c-14.249,2.142-25.785,3.877-33.795,5.081c-3.964,0.625-7.048,1.112-9.178,1.448c-1.026,0.174-1.816,0.308-2.382,0.404
										c-0.536,0.096-0.809,0.155-0.807,0.171c0.002,0.017,0.281-0.008,0.822-0.073c0.57-0.074,1.365-0.178,2.397-0.313
										c2.135-0.304,5.226-0.743,9.2-1.309c8.011-1.199,19.548-2.925,33.799-5.057c28.546-4.411,67.927-10.497,111.446-17.223
										c43.491-6.755,82.885-12.811,111.43-17.029c14.272-2.111,25.831-3.768,33.829-4.854c3.999-0.543,7.107-0.944,9.22-1.189
										c2.112-0.245,3.227-0.335,3.239-0.258c0.013,0.077-1.079,0.319-3.169,0.704c-2.09,0.385-5.178,0.914-9.159,1.568
										c-7.963,1.308-19.498,3.115-33.761,5.284C395.888,228.749,356.449,234.517,312.886,240.819z"/>
								</g>
							</g>
						</g>
					</g>
				</g>
			</g>
		</g>
	</g>
</g>
<g id="Background_Simple" style="display:none;">
	<g style="display:inline;">
		<path style="fill:#F5F5F5;" d="M75.857,177.887l1.542-3.56c12.996-30.009,41.087-50.887,73.404-53.269
			c4.154-0.306,8.332-0.313,12.497-0.004c29.988,2.227,58.365,20.768,72.753,47.534c8.462,15.742,12.817,34.607,26.354,46.164
			c17.618,15.04,43.6,12.013,66.28,8.169c22.68-3.844,48.688-6.806,66.241,8.312c10.993,9.468,16.125,24.377,17.344,38.915
			c3.227,38.489-18.697,76.318-50.221,97.959c-31.524,21.641-71.181,28.648-109.268,26.277
			c-53.354-3.322-106.679-25.268-142.462-65.573S58.707,229.063,75.857,177.887z"/>
	</g>
</g>
<g id="Table">
	<g>
		<g>
			<path style="fill:#455A64;" d="M455.382,464.689c0,0.144-91.96,0.26-205.372,0.26c-113.451,0-205.392-0.117-205.392-0.26
				s91.94-0.26,205.392-0.26C363.422,464.429,455.382,464.545,455.382,464.689z"/>
		</g>
	</g>
</g>
<g id="Speech_Bubble">
	<g>
		<g>
			<g>
				<g>
					<g>
						<g>
							<g>
								<g>
									<g>
										<g>
											<g>
												<g>
													<g>
														<g>
															<path style="fill:#FFFFFF;" d="M306.25,182.632l4.766-14.011c-3.93-7.545-5.891-16.235-5.235-25.343
																c1.885-26.193,24.648-45.898,50.841-44.012c26.193,1.886,45.898,24.648,44.012,50.841
																c-1.886,26.193-24.647,45.898-50.841,44.012c-10.937-0.788-20.734-5.224-28.31-12.021l0.015,0.023L306.25,182.632z"
																/>
														</g>
														<g>
															<g>
																<path style="fill:#263238;" d="M306.25,182.632c0,0,0.315,0.002,0.961-0.012c0.668-0.016,1.633-0.039,2.898-0.07
																	c2.6-0.07,6.421-0.173,11.393-0.308l0.215-0.006l-0.115-0.182l-0.014-0.023l-0.185,0.157
																	c4.536,4.086,11.397,8.682,20.677,10.927c2.306,0.565,4.751,0.963,7.301,1.169c2.553,0.081,5.208,0.265,7.928-0.055
																	c5.437-0.45,11.16-1.874,16.657-4.529c5.493-2.642,10.747-6.508,15.14-11.508
																	c4.394-4.988,7.911-11.118,9.951-17.954c2.084-6.821,2.502-14.355,1.228-21.757
																	c-1.286-7.395-4.32-14.716-9.166-20.88c-0.612-0.771-1.206-1.555-1.83-2.31c-0.676-0.709-1.351-1.418-2.024-2.124
																	l-1.009-1.058l-1.098-0.96c-0.734-0.636-1.466-1.27-2.197-1.903c-0.752-0.605-1.563-1.131-2.339-1.698
																	c-0.794-0.54-1.537-1.157-2.39-1.596c-1.667-0.935-3.273-1.968-5.035-2.67c-6.873-3.16-14.309-4.59-21.472-4.394
																	c-7.171,0.246-14.027,2.115-19.984,5.137c-5.969,3.016-11.042,7.162-14.986,11.837
																	c-3.957,4.677-6.782,9.875-8.584,15.041c-0.968,2.571-1.485,5.182-2.018,7.687
																	c-0.294,2.546-0.687,4.994-0.672,7.377c-0.13,9.553,2.596,17.339,5.427,22.709l-0.007-0.094
																	c-1.522,4.574-2.692,8.093-3.489,10.488c-0.384,1.166-0.677,2.055-0.88,2.673
																	C306.337,182.339,306.25,182.632,306.25,182.632s0.121-0.318,0.335-0.925c0.218-0.62,0.531-1.514,0.943-2.687
																	c0.823-2.366,2.031-5.842,3.603-10.361l0.017-0.048l-0.024-0.047c-2.774-5.366-5.435-13.114-5.265-22.591
																	c-0.006-2.364,0.396-4.791,0.695-7.315c0.539-2.482,1.06-5.068,2.027-7.612c1.801-5.113,4.614-10.253,8.542-14.873
																	c3.916-4.619,8.944-8.71,14.854-11.684c5.897-2.978,12.677-4.816,19.765-5.052
																	c7.082-0.185,14.43,1.235,21.218,4.361c1.741,0.694,3.326,1.717,4.974,2.641c0.843,0.434,1.576,1.044,2.36,1.578
																	c0.766,0.561,1.568,1.079,2.311,1.678c0.722,0.625,1.445,1.252,2.17,1.881l1.085,0.948l0.996,1.046
																	c0.665,0.698,1.332,1.397,2,2.099c0.616,0.746,1.203,1.521,1.808,2.283c4.789,6.09,7.787,13.322,9.062,20.627
																	c1.263,7.311,0.857,14.761-1.196,21.505c-2.01,6.758-5.477,12.823-9.815,17.765
																	c-4.336,4.954-9.527,8.791-14.958,11.419c-5.435,2.641-11.098,4.067-16.484,4.53
																	c-2.695,0.327-5.326,0.152-7.859,0.082c-2.529-0.195-4.956-0.58-7.246-1.131
																	c-9.215-2.188-16.056-6.711-20.601-10.741l-0.667-0.591l0.482,0.748l0.014,0.022l0.099-0.188
																	c-4.932,0.199-8.723,0.351-11.302,0.455c-1.28,0.055-2.254,0.097-2.93,0.126
																	C306.6,182.608,306.25,182.632,306.25,182.632z"/>
															</g>
														</g>
													</g>
												</g>
											</g>
										</g>
									</g>
								</g>
							</g>
						</g>
					</g>
				</g>
			</g>
		</g>
		<g>
			<g>
				<path style="fill:#FF725E;" d="M371.786,141.84c-0.208-2.297-1.268-4.469-2.764-6.225c-1.465-1.721-3.399-3.095-5.595-3.628
					c-2.333-0.566-4.892-0.127-6.902,1.185c-1.196,0.78-2.187,1.863-2.883,3.109c-0.627-1.135-1.498-2.135-2.549-2.894
					c-1.946-1.405-4.482-1.965-6.839-1.51c-2.219,0.428-4.215,1.711-5.76,3.36c-1.577,1.684-2.738,3.803-3.055,6.088
					c-0.396,2.862,0.084,6.016,1.514,8.526c1.51,2.651,4,4.823,6.575,6.458c4.33,2.75,10.036,6.201,10.036,6.201
					s4.976-3.541,9.431-6.084c2.65-1.512,5.239-3.563,6.873-6.14C371.418,147.846,372.047,144.718,371.786,141.84z"/>
			</g>
		</g>
	</g>
</g>
<g id="Character">
	<g>
		<g>
			<g>
				<g>
					<path style="fill:#263238;" d="M160.55,111.24c-7.061,8.519-14.904,16.388-23.4,23.476c7.066-1.407,13.836-4.286,19.75-8.401
						c-7.937,9.404-15.969,18.956-21.145,30.12c21.846-8.057,39.504-26.705,46.358-48.959L160.55,111.24z"/>
				</g>
				<g>
					<path style="fill:#263238;" d="M178.234,125.846l13.945-11.954c5.156-4.518,22.747-16.807,25.204-23.207
						c2.456-6.4,2.526-13.949-0.954-19.855c-3.263-5.538-9.196-9.028-15.306-11.024c-15.824-5.171-47.279,5.727-59.569,16.956
						c-4.912,4.488-8.961,10.268-9.973,16.847c-1.072,6.973,3.71,16.085,10.157,18.95c15.085,6.705,29.256,6.104,35.252,4.608"/>
				</g>
				<g>
					<g>
						<path style="fill:#455A64;" d="M176.989,117.167c0.006,0.036-0.427,0.13-1.215,0.271c-0.787,0.147-1.936,0.305-3.361,0.45
							c-2.848,0.295-6.822,0.444-11.186,0.095c-4.365-0.358-8.263-1.145-11.027-1.895c-1.383-0.373-2.491-0.714-3.245-0.985
							c-0.755-0.266-1.167-0.429-1.156-0.463c0.011-0.034,0.444,0.063,1.215,0.269c0.769,0.212,1.888,0.497,3.275,0.822
							c2.772,0.654,6.648,1.378,10.98,1.733c4.331,0.347,8.272,0.257,11.114,0.057c1.421-0.098,2.571-0.199,3.365-0.284
							C176.541,117.159,176.984,117.132,176.989,117.167z"/>
					</g>
				</g>
				<g>
					<g>
						<path style="fill:#455A64;" d="M142.265,76.504c0-0.018,0.207-0.032,0.602-0.041c0.395-0.001,0.979-0.034,1.728,0.003
							c1.501,0.032,3.675,0.203,6.323,0.672c5.275,0.907,12.518,3.336,19.154,8.249c6.64,4.912,11.079,11.131,13.488,15.91
							c1.223,2.396,2.021,4.425,2.49,5.851c0.255,0.706,0.393,1.274,0.508,1.652c0.106,0.381,0.154,0.582,0.136,0.588
							c-0.017,0.005-0.098-0.187-0.236-0.556c-0.146-0.366-0.316-0.923-0.598-1.615c-0.526-1.398-1.371-3.393-2.625-5.748
							c-2.474-4.7-6.91-10.808-13.471-15.663c-6.558-4.855-13.695-7.313-18.913-8.306c-2.618-0.512-4.773-0.737-6.265-0.831
							c-0.745-0.068-1.326-0.068-1.719-0.101C142.472,76.544,142.265,76.522,142.265,76.504z"/>
					</g>
				</g>
				<g>
					<g>
						<path style="fill:#455A64;" d="M163.451,65.022c0.001-0.018,0.192-0.018,0.556-0.001c0.362,0.031,0.905,0.018,1.59,0.131
							c1.377,0.153,3.359,0.577,5.678,1.472c2.323,0.886,4.939,2.339,7.52,4.379c2.576,2.042,5.083,4.7,7.207,7.846
							c4.215,6.35,6.144,13.069,7.209,17.87c0.53,2.417,0.856,4.392,1.049,5.761c0.103,0.683,0.159,1.217,0.201,1.579
							c0.039,0.362,0.05,0.553,0.033,0.556c-0.018,0.003-0.064-0.183-0.136-0.54c-0.079-0.414-0.177-0.93-0.297-1.561
							c-0.253-1.356-0.634-3.315-1.207-5.711c-1.151-4.761-3.123-11.399-7.283-17.663c-2.093-3.1-4.552-5.729-7.074-7.761
							c-2.527-2.03-5.084-3.494-7.357-4.411c-2.27-0.926-4.214-1.4-5.571-1.613C164.211,65.13,163.447,65.072,163.451,65.022z"/>
					</g>
				</g>
				<g>
					<g>
						<path style="fill:#263238;" d="M197.576,66.143c-0.003-0.018,0.237-0.078,0.698-0.178c0.461-0.099,1.142-0.237,2.023-0.399
							c1.761-0.31,4.322-0.788,7.541-0.885c3.186-0.087,7.171,0.289,10.966,2.365c1.88,1.029,3.651,2.544,4.916,4.53
							c1.298,1.965,2.015,4.361,2.198,6.829c0.334,4.968-1.386,9.677-4.008,13.043c-2.61,3.407-5.807,5.681-8.577,7.277
							c-2.791,1.598-5.207,2.575-6.88,3.21c-0.842,0.307-1.497,0.54-1.948,0.679c-0.449,0.144-0.688,0.211-0.693,0.194
							c-0.006-0.017,0.221-0.118,0.658-0.293c0.484-0.195,1.118-0.451,1.909-0.769c1.645-0.691,4.027-1.715,6.769-3.339
							c2.722-1.622,5.847-3.898,8.382-7.25c2.537-3.296,4.196-7.897,3.87-12.714c-0.177-2.392-0.867-4.701-2.107-6.591
							c-1.208-1.909-2.903-3.377-4.721-4.387c-3.672-2.039-7.573-2.457-10.726-2.416c-3.184,0.049-5.747,0.468-7.515,0.717
							c-0.844,0.125-1.521,0.226-2.038,0.303C197.826,66.134,197.579,66.16,197.576,66.143z"/>
					</g>
				</g>
				<g>
					<g>
						<path style="fill:#263238;" d="M186.158,74.735c-0.006,0.007-0.069-0.036-0.189-0.129c-0.142-0.114-0.314-0.252-0.523-0.42
							c-0.422-0.408-1.062-1.016-1.662-1.972c-0.607-0.943-1.215-2.205-1.559-3.773c-0.329-1.563-0.418-3.435,0.083-5.405
							c0.502-1.958,1.639-3.982,3.431-5.566c1.77-1.591,4.133-2.791,6.791-3.198c2.661-0.44,5.569,0.127,8.15,1.465
							c2.584,1.354,4.87,3.437,6.617,5.972c1.745,2.542,2.895,5.352,3.696,8.119c0.799,2.776,1.284,5.515,1.628,8.138
							c0.695,5.243,0.338,10.141-1.05,13.929c-1.369,3.802-3.561,6.368-5.285,7.779c-1.741,1.43-2.939,1.836-2.939,1.836
							c-0.037-0.06,1.132-0.532,2.807-1.991c1.66-1.439,3.768-3.998,5.069-7.748c1.318-3.736,1.635-8.553,0.921-13.746
							c-0.353-2.598-0.847-5.32-1.642-8.056c-0.798-2.73-1.932-5.485-3.636-7.967c-1.701-2.47-3.927-4.499-6.424-5.814
							c-2.498-1.299-5.284-1.853-7.844-1.443c-2.561,0.379-4.853,1.524-6.574,3.046c-1.743,1.516-2.854,3.452-3.362,5.337
							c-0.508,1.899-0.448,3.722-0.154,5.253c0.308,1.536,0.876,2.783,1.445,3.725C185.12,74.001,186.221,74.677,186.158,74.735z"/>
					</g>
				</g>
				<g>
					<g>
						<path style="fill:#263238;" d="M157.849,108.573c0.003,0.018-0.218,0.063-0.641,0.134c-0.423,0.072-1.049,0.174-1.861,0.245
							c-1.621,0.163-3.992,0.279-6.906,0.029c-2.909-0.251-6.359-0.907-10-2.227c-1.819-0.66-3.674-1.503-5.514-2.529
							c-1.838-1.017-3.691-2.257-5.193-3.965c-0.742-0.855-1.364-1.815-1.773-2.852c-0.4-1.039-0.606-2.141-0.585-3.219
							c0.04-2.17,0.881-4.156,1.999-5.756c1.148-1.596,2.613-2.822,4.168-3.616c1.559-0.775,3.141-1.202,4.599-1.381
							c2.93-0.37,5.31,0.059,6.893,0.412c0.795,0.188,1.402,0.371,1.809,0.508c0.406,0.14,0.616,0.221,0.611,0.238
							c-0.006,0.017-0.226-0.031-0.64-0.138c-0.414-0.105-1.027-0.255-1.822-0.411c-1.583-0.291-3.942-0.655-6.8-0.246
							c-1.423,0.198-2.953,0.635-4.453,1.401c-1.484,0.778-2.882,1.97-3.974,3.509c-1.062,1.543-1.851,3.445-1.88,5.487
							c-0.016,1.017,0.179,2.043,0.556,3.02c0.387,0.975,0.975,1.883,1.685,2.702c1.437,1.635,3.241,2.854,5.05,3.862
							c1.812,1.018,3.639,1.86,5.431,2.524c3.587,1.328,6.991,2.015,9.869,2.31c2.882,0.295,5.237,0.236,6.854,0.136
							C156.951,108.654,157.842,108.52,157.849,108.573z"/>
					</g>
				</g>
				<g>
					<g>
						<path style="fill:#263238;" d="M140.33,94.053c-0.015,0.01-0.139-0.154-0.36-0.476c-0.222-0.321-0.541-0.799-0.942-1.422
							c-0.798-1.247-1.945-3.062-3.178-5.415c-1.212-2.353-2.534-5.279-3.185-8.765c-0.321-1.737-0.442-3.611-0.252-5.535
							c0.2-1.912,0.74-3.928,1.976-5.623c1.247-1.686,3.12-2.775,5.021-3.188c1.907-0.439,3.807-0.36,5.552-0.075
							c1.747,0.298,3.36,0.827,4.799,1.43c1.448,0.592,2.76,1.211,3.965,1.755c2.402,1.101,4.398,1.86,5.83,2.21
							c1.426,0.367,2.245,0.441,2.239,0.491c-0.002,0.018-0.206,0.009-0.596-0.023c-0.389-0.033-0.964-0.108-1.69-0.27
							c-1.461-0.292-3.505-1.01-5.932-2.07c-2.438-1.011-5.268-2.494-8.693-3.048c-1.702-0.265-3.543-0.327-5.358,0.098
							c-1.812,0.403-3.549,1.425-4.718,3c-1.159,1.587-1.689,3.516-1.888,5.368c-0.191,1.868-0.085,3.695,0.217,5.398
							c0.61,3.416,1.878,6.325,3.041,8.682c1.183,2.358,2.278,4.198,3.023,5.476c0.349,0.6,0.633,1.087,0.858,1.473
							C140.251,93.861,140.345,94.044,140.33,94.053z"/>
					</g>
				</g>
				<g>
					<path style="fill:#263238;" d="M209.736,84.46c5.213-0.794,10.208-2.977,14.333-6.262c0.003,2.673-1.06,5.332-2.905,7.265
						s-4.451,3.121-7.121,3.243"/>
				</g>
			</g>
			<g>
				<path style="fill:#263238;" d="M278.682,195.666c0.352-3.384,3.142-6.312,2.859-9.702c-0.221-2.65-2.252-4.733-3.529-7.066
					c-4.871-8.895,1.384-20.979-3.743-29.729l1.309,34.676c0.743,2.888,0.231,5.926-0.042,8.896
					c-0.273,2.969-0.246,6.168,1.388,8.662c1.634,2.495,5.407,3.768,7.697,1.858C281.103,202.766,278.314,199.199,278.682,195.666z"
					/>
			</g>
			<g>
				<path style="fill:#263238;" d="M189.146,217.516c-0.352-3.384-3.142-6.312-2.859-9.702c0.221-2.65,2.252-4.733,3.529-7.066
					c4.871-8.895-1.384-20.979,3.743-29.729l-1.309,34.676c-0.743,2.888-0.231,5.926,0.042,8.896
					c0.273,2.969,0.246,6.168-1.388,8.663c-1.634,2.495-5.407,3.768-7.697,1.858C186.725,224.616,189.514,221.049,189.146,217.516z"
					/>
			</g>
			<g>
				<g>
					<g>
						<g>
							<g>
								<path style="fill:#263238;" d="M164.823,130.574c11.574-17.598,25.477-28.229,46.034-30.416
									c11.598-1.233,20.477-1.36,28.777,1.376c8.038,2.65,15.717,6.179,21.359,13.039c6.701,8.147,12.545,17.419,14.606,27.869
									c2.117,10.734,2.259,21.409,1.04,30.324c-1.48,10.827-7.096,27.678-12.517,37.055l-17.63,3.822
									c-14.766,1.841-29.739,3.68-44.481,1.482c-14.741-2.198-29.477-8.956-38.368-21.309
									C151.293,176.653,153.248,148.173,164.823,130.574z"/>
							</g>
						</g>
					</g>
					<g>
						<g>
							<g>
								<path style="fill:#FFBF9D;" d="M190.868,130.941l34.445-17.378l9.426,0.253c20.998-1.797,37.538,20.063,39.191,37.052
									c1.836,18.874,3.334,41.99,1.574,56.179c-3.54,28.531-27.223,32.991-27.223,32.991s1.548,21.582,2.565,30.966l-53.001-5.597
									L182.283,141.37C182.004,136.192,185.734,131.662,190.868,130.941z"/>
							</g>
						</g>
						<g>
							<g>
								<g>
									<g>
										<path style="fill:#FF9A6C;" d="M232.929,204.238c0.063-1.493,0.766-2.87,1.733-3.86c1.933-1.979,4.974-2.425,7.351-1.08
											c2.376,1.345,3.941,4.399,3.781,7.382l0,0c-1.102,1.839-2.921,3.177-5.033,3.551c-0.329,0.058-0.66,0.099-0.994,0.121
											c-1.617,0.102-3.308-0.297-4.646-1.377C233.783,207.895,232.852,206.08,232.929,204.238z"/>
									</g>
								</g>
							</g>
						</g>
						<g>
							<g>
								<g>
									<g>
										<g>
											<g>
												<g>
													<g>
														<g>
															<g>
																<g>
																	<g>
																		<g>
																			<g>
																				<g>
																					<g>
																						<g>
																							<g>
																								<g>
																									<g>
																										<g>
																											<g>
																												<path style="fill:#263238;" d="M263.192,174.613c0.133,1.921-1.383,3.616-3.385,3.792
																													c-1.998,0.176-3.73-1.233-3.863-3.153c-0.134-1.92,1.383-3.617,3.38-3.794
																													C261.326,171.282,263.058,172.694,263.192,174.613z"/>
																											</g>
																										</g>
																									</g>
																								</g>
																							</g>
																						</g>
																					</g>
																				</g>
																			</g>
																		</g>
																	</g>
																</g>
															</g>
														</g>
													</g>
												</g>
											</g>
										</g>
									</g>
									<g>
										<g>
											<g>
												<g>
													<g>
														<g>
															<g>
																<g>
																	<g>
																		<g>
																			<g>
																				<g>
																					<g>
																						<g>
																							<g>
																								<g>
																									<g>
																										<g>
																											<g>
																												<g>
																													<path style="fill:#263238;" d="M268.373,160.88c-0.435,0.49-3.262-1.456-7.178-1.313
																														c-3.914,0.087-6.719,2.2-7.16,1.735c-0.216-0.205,0.215-1.077,1.435-2.031
																														c1.201-0.949,3.273-1.902,5.713-1.977c2.44-0.069,4.523,0.759,5.733,1.638
																														C268.15,159.816,268.588,160.66,268.373,160.88z"/>
																												</g>
																											</g>
																										</g>
																									</g>
																								</g>
																							</g>
																						</g>
																					</g>
																				</g>
																			</g>
																		</g>
																	</g>
																</g>
															</g>
														</g>
													</g>
												</g>
											</g>
										</g>
									</g>
									<g>
										<g>
											<g>
												<g>
													<g>
														<g>
															<g>
																<g>
																	<g>
																		<g>
																			<g>
																				<g>
																					<g>
																						<g>
																							<g>
																								<g>
																									<g>
																										<g>
																											<g>
																												<path style="fill:#263238;" d="M246.052,193.679c-0.026-0.222,2.394-0.725,6.322-1.364
																													c0.996-0.138,1.936-0.368,2.082-1.057c0.211-0.731-0.244-1.794-0.768-2.941
																													c-1.023-2.389-2.093-4.892-3.217-7.515c-4.475-10.702-7.753-19.516-7.321-19.692
																													c0.433-0.177,4.413,8.355,8.889,19.057c1.079,2.64,2.112,5.156,3.094,7.564
																													c0.418,1.124,1.112,2.391,0.652,3.908c-0.244,0.757-0.96,1.324-1.595,1.519
																													c-0.634,0.217-1.196,0.247-1.69,0.294C248.537,193.799,246.075,193.901,246.052,193.679z"/>
																											</g>
																										</g>
																									</g>
																								</g>
																							</g>
																						</g>
																					</g>
																				</g>
																			</g>
																		</g>
																	</g>
																</g>
															</g>
														</g>
													</g>
												</g>
											</g>
										</g>
									</g>
									<g>
										<g>
											<g>
												<g>
													<g>
														<g>
															<g>
																<g>
																	<g>
																		<g>
																			<g>
																				<g>
																					<g>
																						<g>
																							<g>
																								<g>
																									<g>
																										<g>
																											<path style="fill:#FF9A6C;" d="M248.323,240.003c0,0-19.049,1.882-38.351-8.842
																												c0,0,10.535,19.778,38.848,16.154L248.323,240.003z"/>
																										</g>
																									</g>
																								</g>
																							</g>
																						</g>
																					</g>
																				</g>
																			</g>
																		</g>
																	</g>
																</g>
															</g>
														</g>
													</g>
												</g>
											</g>
										</g>
									</g>
									<g>
										<g>
											<g>
												<g>
													<g>
														<g>
															<g>
																<g>
																	<g>
																		<g>
																			<g>
																				<g>
																					<g>
																						<g>
																							<g>
																								<g>
																									<g>
																										<g>
																											<g>
																												<path style="fill:#263238;" d="M234.619,196.781c0.635-0.059,0.788,4.192,4.53,7.086
																													c3.734,2.904,8.25,2.272,8.303,2.864c0.068,0.265-0.981,0.86-2.891,0.978
																													c-1.874,0.128-4.634-0.382-6.923-2.151c-2.284-1.774-3.322-4.211-3.526-5.95
																													C233.889,197.835,234.327,196.766,234.619,196.781z"/>
																											</g>
																										</g>
																									</g>
																								</g>
																							</g>
																						</g>
																					</g>
																				</g>
																			</g>
																		</g>
																	</g>
																</g>
															</g>
														</g>
													</g>
												</g>
											</g>
										</g>
									</g>
									<g>
										<g>
											<g>
												<g>
													<g>
														<g>
															<g>
																<g>
																	<g>
																		<g>
																			<g>
																				<g>
																					<g>
																						<g>
																							<g>
																								<g>
																									<g>
																										<g>
																											<g>
																												<g>
																													<g>
																														<path style="fill:#263238;" d="M265.829,144.89c-0.626,0.979-3.647,0.442-7.14,0.852
																															c-3.507,0.299-6.366,1.432-7.165,0.598c-0.357-0.409-0.006-1.354,1.175-2.358
																															c1.164-0.998,3.202-1.956,5.609-2.201c2.405-0.241,4.587,0.287,5.917,1.033
																															C265.577,143.561,266.1,144.417,265.829,144.89z"/>
																													</g>
																												</g>
																											</g>
																										</g>
																									</g>
																								</g>
																							</g>
																						</g>
																					</g>
																				</g>
																			</g>
																		</g>
																	</g>
																</g>
															</g>
														</g>
													</g>
												</g>
											</g>
										</g>
									</g>
									<g>
										<g>
											<g>
												<g>
													<g>
														<g>
															<g>
																<g>
																	<g>
																		<g>
																			<g>
																				<g>
																					<g>
																						<g>
																							<g>
																								<g>
																									<g>
																										<g>
																											<g>
																												<path style="fill:#263238;" d="M220.446,176.742c0.07,1.924,1.755,3.45,3.765,3.414
																													c2.005-0.035,3.579-1.619,3.51-3.542c-0.07-1.923-1.756-3.452-3.761-3.416
																													C221.95,173.232,220.376,174.819,220.446,176.742z"/>
																											</g>
																										</g>
																									</g>
																								</g>
																							</g>
																						</g>
																					</g>
																				</g>
																			</g>
																		</g>
																	</g>
																</g>
															</g>
														</g>
													</g>
												</g>
											</g>
										</g>
									</g>
									<g>
										<g>
											<g>
												<g>
													<g>
														<g>
															<g>
																<g>
																	<g>
																		<g>
																			<g>
																				<g>
																					<g>
																						<g>
																							<g>
																								<g>
																									<g>
																										<g>
																											<g>
																												<g>
																													<path style="fill:#263238;" d="M215.495,164.074c0.484,0.441,3.09-1.792,7-2.062
																														c3.901-0.325,6.914,1.481,7.303,0.971c0.193-0.227-0.328-1.049-1.64-1.869
																														c-1.294-0.817-3.455-1.547-5.889-1.363c-2.434,0.188-4.418,1.232-5.529,2.232
																														C215.604,162.992,215.258,163.877,215.495,164.074z"/>
																												</g>
																											</g>
																										</g>
																									</g>
																								</g>
																							</g>
																						</g>
																					</g>
																				</g>
																			</g>
																		</g>
																	</g>
																</g>
															</g>
														</g>
													</g>
												</g>
											</g>
										</g>
									</g>
									<g>
										<g>
											<g>
												<g>
													<g>
														<g>
															<g>
																<g>
																	<g>
																		<g>
																			<g>
																				<g>
																					<g>
																						<g>
																							<g>
																								<g>
																									<g>
																										<g>
																											<g>
																												<g>
																													<g>
																														<path style="fill:#263238;" d="M212.922,153.84c0.833,0.832,3.783-0.305,7.406-0.608
																															c3.613-0.416,6.74,0.117,7.38-0.862c0.278-0.473-0.27-1.327-1.672-2.072
																															c-1.382-0.742-3.642-1.269-6.129-1.023c-2.486,0.25-4.588,1.208-5.783,2.208
																															C212.906,152.487,212.552,153.432,212.922,153.84z"/>
																													</g>
																												</g>
																											</g>
																										</g>
																									</g>
																								</g>
																							</g>
																						</g>
																					</g>
																				</g>
																			</g>
																		</g>
																	</g>
																</g>
															</g>
														</g>
													</g>
												</g>
											</g>
										</g>
									</g>
								</g>
							</g>
						</g>
						<g>
							<g>
								<g>
									<g>
										<g>
											<g>
												<g>
													<g>
														<g>
															<g>
																<g>
																	<g>
																		<g>
																			<g>
																				<g>
																					<g>
																						<g>
																							<g>
																								<g>
																									<path style="fill:#FFBF9D;" d="M191.364,188.394c-0.077-2.113-2.69-7.013-4.788-7.267
																										c-5.603-0.679-15.633,0.111-15.245,14.268c0.533,19.353,19.853,14.827,19.872,14.271
																										C191.218,209.232,191.63,195.691,191.364,188.394z"/>
																								</g>
																							</g>
																						</g>
																					</g>
																				</g>
																			</g>
																		</g>
																	</g>
																</g>
															</g>
														</g>
													</g>
												</g>
											</g>
										</g>
									</g>
								</g>
							</g>
							<g>
								<g>
									<g>
										<g>
											<g>
												<g>
													<g>
														<g>
															<g>
																<g>
																	<g>
																		<g>
																			<g>
																				<g>
																					<g>
																						<g>
																							<g>
																								<g>
																									<g>
																										<path style="fill:#FF9A6C;" d="M185.669,202.744c-0.086-0.06-0.331,0.245-0.893,0.522
																											c-0.549,0.269-1.501,0.472-2.52,0.121c-2.065-0.694-3.875-3.892-4.065-7.378
																											c-0.098-1.761,0.224-3.447,0.81-4.854c0.553-1.432,1.441-2.446,2.466-2.656
																											c1.017-0.265,1.763,0.331,2.015,0.868c0.275,0.535,0.162,0.925,0.265,0.955
																											c0.056,0.047,0.407-0.335,0.229-1.129c-0.091-0.383-0.33-0.833-0.796-1.193
																											c-0.474-0.364-1.162-0.538-1.878-0.441c-1.49,0.145-2.795,1.555-3.439,3.098
																											c-0.725,1.552-1.13,3.45-1.02,5.426c0.231,3.896,2.327,7.49,5.148,8.223
																											c1.37,0.317,2.496-0.124,3.069-0.598C185.648,203.213,185.737,202.777,185.669,202.744z"/>
																									</g>
																								</g>
																							</g>
																						</g>
																					</g>
																				</g>
																			</g>
																		</g>
																	</g>
																</g>
															</g>
														</g>
													</g>
												</g>
											</g>
										</g>
									</g>
								</g>
							</g>
						</g>
					</g>
					<g>
						<g>
							<g>
								<g>
									<path style="fill:#263238;" d="M184.947,182.894l8.883,13.077c16.33-45.421-6.358-53.312,9.482-61.478
										c25.619-13.21,36.284-25.923,41.019-20.128c0,0-14.998-4.66-30.462-0.586c-15.464,4.075-44.548,14.589-42.44,33.069
										C173.537,165.327,184.947,182.894,184.947,182.894z"/>
								</g>
							</g>
						</g>
					</g>
				</g>
			</g>
			<g>
				<path style="fill:#263238;" d="M239.513,102.852c-22.269-3.387-48.563,30.228-48.563,30.228l0.503,19.272
					c21.469,1.489,49.22-21.252,65.269-37.073C256.723,115.279,261.783,106.239,239.513,102.852z"/>
			</g>
			<g>
				<g>
					<path style="fill:#455A64;" d="M155.317,161.107c-0.009,0-0.017-0.086-0.024-0.256c-0.005-0.2-0.012-0.447-0.019-0.753
						c-0.026-0.662,0.015-1.639,0.096-2.894c0.192-2.507,0.727-6.124,1.864-10.477c0.581-2.174,1.25-4.541,2.197-7.027
						c1.006-2.455,2.257-4.996,3.739-7.579c2.966-5.16,6.96-10.435,11.962-15.158c4.992-4.736,10.5-8.416,15.839-11.049
						c2.668-1.323,5.291-2.399,7.79-3.272c2.506-0.855,4.888-1.503,7.079-2.014c4.398-0.971,8.033-1.33,10.54-1.465
						c1.255-0.077,2.231-0.083,2.892-0.078c0.305,0.003,0.552,0.005,0.752,0.007c0.169,0.005,0.256,0.011,0.256,0.02
						c0,0.009-0.087,0.02-0.256,0.033c-0.2,0.012-0.446,0.026-0.751,0.045c-0.66,0.029-1.632,0.067-2.881,0.176
						c-2.496,0.196-6.108,0.61-10.471,1.621c-2.174,0.531-4.535,1.196-7.02,2.063c-2.477,0.884-5.075,1.969-7.719,3.293
						c-5.288,2.638-10.741,6.299-15.695,10.998c-4.962,4.686-8.937,9.911-11.904,15.02c-1.483,2.556-2.742,5.078-3.754,7.5
						c-0.949,2.439-1.642,4.807-2.242,6.96c-1.178,4.322-1.765,7.91-2.018,10.401c-0.112,1.247-0.185,2.218-0.193,2.877
						c-0.013,0.304-0.024,0.551-0.032,0.751C155.335,161.02,155.326,161.107,155.317,161.107z"/>
				</g>
			</g>
			<g>
				<g>
					<path style="fill:#455A64;" d="M174.349,117.585c-0.005-0.007,0.053-0.059,0.174-0.154c0.147-0.112,0.324-0.247,0.541-0.411
						c0.519-0.379,1.224-0.893,2.113-1.542c1.859-1.304,4.651-3.056,8.271-4.912c3.651-1.783,8.132-3.672,13.32-5.118
						c5.184-1.437,11.059-2.421,17.267-2.65c12.463-0.489,23.619,2.436,30.988,5.854c1.816,0.941,3.315,2.1,4.35,3.369
						c1.039,1.266,1.616,2.588,1.887,3.7c0.284,1.117,0.243,2.026,0.168,2.619c-0.077,0.598-0.205,0.892-0.205,0.892
						c-0.092,0.005,0.423-1.266-0.159-3.46c-0.295-1.077-0.884-2.352-1.915-3.565c-1.026-1.214-2.501-2.325-4.295-3.228
						c-7.322-3.292-18.435-6.15-30.8-5.661c-6.165,0.227-12.001,1.19-17.16,2.592c-5.162,1.412-9.63,3.253-13.283,4.985
						c-3.622,1.805-6.433,3.501-8.321,4.75c-0.911,0.614-1.633,1.101-2.164,1.459c-0.229,0.148-0.416,0.269-0.571,0.369
						C174.424,117.554,174.354,117.592,174.349,117.585z"/>
				</g>
			</g>
			<g>
				<g>
					<path style="fill:#455A64;" d="M173.209,119.687c-0.009-0.015,0.206-0.157,0.625-0.413c0.466-0.277,1.08-0.642,1.848-1.099
						c1.623-0.923,4.047-2.13,7.147-3.387c3.126-1.18,6.941-2.378,11.299-3.161c4.351-0.789,9.237-1.16,14.337-0.853
						c5.102,0.3,9.911,1.245,14.138,2.549c4.208,1.323,7.962,2.828,10.682,4.84c1.359,0.991,2.464,2.062,3.272,3.132
						c0.813,1.067,1.31,2.127,1.605,3.02c0.271,0.903,0.365,1.634,0.376,2.127c0.007,0.494,0.002,0.752-0.016,0.752
						c-0.078,0.009,0.03-1.057-0.552-2.814c-0.318-0.863-0.828-1.881-1.644-2.906c-0.81-1.027-1.909-2.057-3.256-3.011
						c-2.689-1.934-6.418-3.391-10.608-4.681c-4.201-1.269-8.969-2.19-14.028-2.488c-5.057-0.305-9.901,0.048-14.224,0.805
						c-4.328,0.751-8.126,1.904-11.25,3.032c-3.097,1.206-5.535,2.356-7.182,3.221c-0.786,0.42-1.415,0.756-1.891,1.011
						C173.452,119.591,173.218,119.702,173.209,119.687z"/>
				</g>
			</g>
			<g>
				<g>
					<path style="fill:#455A64;" d="M156.679,147.133c0.021-0.029,0.558,0.3,1.509,0.918c0.472,0.314,1.054,0.692,1.75,1.098
						c0.693,0.41,1.463,0.909,2.359,1.382c1.759,1.004,3.919,2.082,6.369,3.158c2.463,1.045,5.223,2.071,8.188,2.934
						c2.973,0.841,5.857,1.436,8.5,1.856c2.648,0.388,5.05,0.62,7.074,0.702c1.011,0.075,1.928,0.061,2.733,0.08
						c0.805,0.026,1.499,0.013,2.066-0.002c1.134-0.02,1.764-0.013,1.766,0.023c0.002,0.036-0.623,0.098-1.758,0.18
						c-0.568,0.047-1.263,0.089-2.072,0.091c-0.808,0.008-1.73,0.048-2.748-0.003c-2.037-0.035-4.46-0.23-7.131-0.595
						c-2.666-0.397-5.577-0.983-8.573-1.83c-2.988-0.87-5.766-1.918-8.237-2.995c-2.457-1.108-4.614-2.227-6.36-3.278
						c-0.89-0.496-1.65-1.019-2.331-1.455c-0.685-0.431-1.252-0.835-1.708-1.176C157.155,147.546,156.658,147.162,156.679,147.133z"
						/>
				</g>
			</g>
			<g>
				<path style="fill:#263238;" d="M192.216,199.146c-0.352-3.384-3.142-6.311-2.859-9.702c0.222-2.65,2.252-4.733,3.529-7.066
					c4.871-8.895-1.384-20.979,3.743-29.729l-1.309,34.676c-0.743,2.888-0.231,5.926,0.042,8.896
					c0.273,2.969,0.246,6.168-1.387,8.662c-1.634,2.495-5.407,3.768-7.697,1.858C189.795,206.246,192.584,202.679,192.216,199.146z"
					/>
			</g>
			<g>
				<g>
					<path style="fill:#455A64;" d="M202.152,149.402c-0.002,0.036-0.547,0.031-1.535-0.009c-0.495-0.014-1.099-0.047-1.796-0.131
						c-0.698-0.078-1.497-0.138-2.368-0.296c-1.752-0.252-3.815-0.703-6.067-1.344c-2.242-0.673-4.667-1.554-7.118-2.697
						c-2.442-1.164-4.666-2.473-6.613-3.774c-1.928-1.329-3.589-2.633-4.898-3.824c-0.677-0.57-1.231-1.149-1.736-1.637
						c-0.509-0.484-0.919-0.929-1.244-1.301c-0.66-0.736-1.011-1.153-0.984-1.178c0.027-0.024,0.428,0.347,1.13,1.037
						c0.347,0.349,0.775,0.771,1.3,1.232c0.521,0.465,1.089,1.021,1.776,1.57c1.33,1.146,3,2.409,4.924,3.703
						c1.943,1.267,4.151,2.55,6.567,3.702c2.426,1.13,4.821,2.016,7.034,2.708c2.223,0.66,4.259,1.144,5.99,1.44
						c0.86,0.181,1.651,0.265,2.341,0.371c0.69,0.111,1.288,0.173,1.778,0.218C201.612,149.292,202.154,149.366,202.152,149.402z"/>
				</g>
			</g>
		</g>
		<g>
			<g>
				<g>
					<g>
						<path style="fill:#FF725E;" d="M320.863,428.15c0,0-4.77-46.351-1.349-73.144c3.421-26.793-35.823-97.012-35.823-97.012
							l-33.665-4.178l0,0c-0.914,26.494-53.762-1.891-53.762-1.891l-18.758,7.216l-22.777,10.777l27.478,170.084
							c0,0-12.776,18.106-15.101,24.686h119.782l37.606-0.137L320.863,428.15z"/>
					</g>
				</g>
				<g>
					<g>
						<g style="opacity:0.3;">
							<g>
								<g>
									<path d="M179.329,411.384c0,0,7.997,18.729,19.257,23.084c50.667,19.597,115.869-19.145,115.869-19.145l-12.947-16.595
										l-93.877,29.863L179.329,411.384z"/>
								</g>
							</g>
						</g>
						<g>
							<path style="fill:#FFBF9D;" d="M156.078,272.425c0,0-18.238-0.509-18.58,39.506c-0.342,40.016,45.841,107.172,53.71,113.783
								c7.868,6.611,16.859,11.06,40.569,7.485c29.74-4.484,69.731-20.133,69.731-20.133l-23.407-24.932l-58.599-4.114
								l-37.531-88.444C181.971,295.577,170.788,270.685,156.078,272.425z"/>
						</g>
					</g>
				</g>
				<g>
					<g>
						<g>
							<path style="fill:#FFBF9D;" d="M342.099,415.295c8.928,0.411,17.59-3.653,22.619-11.041
								c2.657-3.903,4.723-8.576,4.723-13.671c0-14.266-9.579-34.448-11.631-42.103c-2.053-7.655-35.095-66.636-53.81-78.095
								c-4.197-2.57-12.366-4.465-12.366-4.465l32.651,105.525l-72.138,12.038l7.917,28.037L342.099,415.295z"/>
						</g>
					</g>
				</g>
				<g>
					<path style="fill:#FF725E;" d="M313.384,356.913l50.46-15.935c0,0-51.629-83.255-81.625-83.154L313.384,356.913z"/>
				</g>
				<g>
					<g>
						<g>
							<g>
								<path style="fill:#FFBF9D;" d="M301.508,375.246l11.101-21.707l0.859-11.245c0.205-2.68,1.621-5.119,3.847-6.625
									l12.732-8.614c0,0,4.357,0.516,3.005,3.953c-1.352,3.437-7.941,9.623-7.941,9.623l-3.886,11.029l6.317-11.201l9.227-4.64
									l9.123,0.687c0,0,1.689,4.124-2.534,4.296h-4.562l-6.927,5.671l-4.327,10.654l6.524-10.311l9.63-3.48l6.082,1.59
									c0,0,1.69,2.75-1.352,3.093c-3.041,0.344-5.068,0.344-5.068,0.344l-5.575,3.296l-4.9,10.452l8.616-7.217l11.151-1.354
									c0,0,1.859,2.729-1.014,3.76c-2.872,1.031-8.616,4.124-8.616,4.124l-6.251,7.733L301.508,375.246z"/>
							</g>
							<g>
								<g>
									<path style="fill:#FF9A6C;" d="M301.508,375.246c1.27-0.226,13.317-2.366,35.232-6.258l-0.103,0.061
										c1.966-2.441,4.049-5.028,6.237-7.744l0.024-0.03l0.033-0.018c1.955-1.044,3.997-2.099,6.153-3.1
										c0.541-0.247,1.086-0.495,1.648-0.723c0.561-0.247,1.163-0.393,1.604-0.727c0.467-0.318,0.711-0.852,0.695-1.413
										c-0.021-0.562-0.245-1.148-0.554-1.637l0.198,0.09c-3.491,0.428-7.259,0.891-11.149,1.368l0.116-0.05
										c-2.694,2.261-5.613,4.711-8.609,7.226l-0.811,0.681l0.449-0.959c1.533-3.276,3.193-6.826,4.891-10.455l0.032-0.068
										l0.065-0.038c1.732-1.025,3.642-2.156,5.573-3.299l0.057-0.034l0.069-0.001c1.449-0.02,2.978-0.129,4.531-0.29
										c0.395-0.042,0.775-0.079,1.117-0.184c0.356-0.089,0.649-0.291,0.821-0.556c0.35-0.552,0.09-1.399-0.263-2.028l0.151,0.112
										c-1.901-0.496-3.983-1.039-6.083-1.587l0.151-0.007c-3.037,1.099-6.314,2.284-9.629,3.483l0.13-0.104
										c-2.07,3.273-4.283,6.773-6.522,10.311l-0.461-0.237c0.837-2.062,1.737-4.278,2.643-6.507
										c0.564-1.388,1.126-2.771,1.684-4.147l0.025-0.062l0.051-0.042c2.329-1.907,4.639-3.797,6.927-5.67l0.072-0.059l0.093,0
										c0.9,0,1.797,0,2.692,0c0.883-0.021,1.82,0.06,2.624-0.092c0.813-0.157,1.55-0.634,1.745-1.424
										c0.22-0.764,0.079-1.66-0.203-2.423l0.218,0.159c-3.078-0.233-6.119-0.463-9.123-0.691l0.133-0.026
										c-3.123,1.569-6.201,3.114-9.229,4.635l0.105-0.1c-2.157,3.819-4.266,7.553-6.324,11.197l-0.436-0.198
										c1.337-3.785,2.633-7.453,3.895-11.026l0.018-0.051l0.042-0.04c2.317-2.232,4.518-4.513,6.346-6.956
										c0.854-1.215,1.84-2.534,1.776-3.925c-0.034-0.689-0.498-1.258-1.083-1.626c-0.589-0.367-1.292-0.588-1.971-0.693
										l0.142-0.035c-2.813,1.897-5.529,3.729-8.141,5.491c-1.306,0.88-2.586,1.743-3.839,2.588
										c-1.286,0.802-2.395,1.74-3.164,2.951c-0.774,1.187-1.232,2.535-1.363,3.879c-0.109,1.373-0.216,2.711-0.32,4.015
										c-0.206,2.609-0.4,5.077-0.583,7.398l-0.002,0.03l-0.013,0.025C305.715,367.139,301.993,374.312,301.508,375.246
										c0.473-0.939,4.11-8.156,10.972-21.773l-0.015,0.054c0.172-2.322,0.354-4.791,0.547-7.401
										c0.099-1.306,0.2-2.647,0.303-4.023c0.13-1.398,0.602-2.802,1.403-4.042c0.781-1.253,1.982-2.269,3.255-3.065
										c1.25-0.849,2.528-1.716,3.831-2.601c2.607-1.769,5.317-3.609,8.125-5.514l0.068-0.046l0.074,0.012
										c0.755,0.116,1.48,0.341,2.148,0.75c0.655,0.4,1.241,1.104,1.285,1.944c0.069,0.824-0.245,1.588-0.591,2.275
										c-0.377,0.676-0.79,1.333-1.258,1.951c-1.854,2.489-4.052,4.774-6.386,7.031l0.059-0.091
										c-1.256,3.574-2.546,7.245-3.877,11.032l-0.435-0.198c2.053-3.646,4.157-7.383,6.309-11.205l0.037-0.066l0.068-0.034
										c3.027-1.524,6.103-3.072,9.224-4.644l0.063-0.032l0.07,0.005c3.004,0.225,6.045,0.453,9.123,0.684l0.165,0.012
										l0.053,0.146c0.317,0.873,0.481,1.813,0.221,2.764c-0.236,0.992-1.228,1.629-2.136,1.784
										c-0.953,0.172-1.816,0.078-2.721,0.104c-0.897,0-1.796,0-2.698,0l0.164-0.059c-2.288,1.874-4.597,3.764-6.926,5.672
										l0.076-0.103c-0.559,1.376-1.12,2.759-1.684,4.147c-0.905,2.229-1.806,4.445-2.643,6.507l-0.461-0.237
										c2.24-3.538,4.454-7.037,6.525-10.309l0.047-0.075l0.083-0.03c3.316-1.197,6.594-2.381,9.631-3.477l0.075-0.027l0.077,0.02
										c2.099,0.55,4.181,1.095,6.081,1.592l0.102,0.027l0.049,0.085c0.222,0.387,0.374,0.779,0.461,1.214
										c0.083,0.426,0.06,0.927-0.2,1.341c-0.563,0.848-1.583,0.886-2.313,0.974c-1.57,0.16-3.099,0.268-4.583,0.287l0.126-0.034
										c-1.933,1.141-3.844,2.269-5.577,3.292l0.096-0.106c-1.704,3.626-3.37,7.174-4.908,10.448l-0.362-0.279
										c3.001-2.509,5.925-4.953,8.623-7.209l0.051-0.043l0.065-0.008c3.891-0.468,7.66-0.921,11.152-1.341l0.133-0.016
										l0.066,0.106c0.354,0.568,0.592,1.184,0.622,1.862c0.03,0.672-0.309,1.386-0.866,1.753c-0.549,0.4-1.161,0.534-1.695,0.773
										c-0.554,0.223-1.096,0.467-1.634,0.711c-2.146,0.989-4.19,2.036-6.141,3.07l0.057-0.047
										c-2.198,2.708-4.29,5.287-6.265,7.721l-0.041,0.05l-0.063,0.01C314.847,373.007,302.779,375.033,301.508,375.246z"/>
								</g>
							</g>
						</g>
					</g>
				</g>
				<g>
					<g>
						<g>
							<g>
								<g>
									<path style="fill:#FFBF9D;" d="M260.063,411.159c0,0-13.146,8.411-27.989,7.98c-14.842-0.431-27.989,4.446-29.897,3.086
										c-1.908-1.361-2.12-3.733,0-4.811c2.12-1.078,11.11-2.372,11.11-2.372l7.761-3.235c0,0-26.505,2.372-28.625,1.294
										c-2.12-1.078-4.241-2.588-3.393-4.96c0.848-2.372,2.969-2.372,2.969-2.372s-5.725,0.216-5.513-2.157
										c0.212-2.372,2.332-4.529,3.181-4.96c0.848-0.431,11.968-5.03,11.968-5.03l14.296-2.891l-13.733-0.559l-11.996,3.399
										c0,0-4.786,0.551-3.721-3.547c1.066-4.098,15.696-8.627,15.696-8.627l18.659-1.306c0,0-14.418-2.145-15.903-6.674
										c-1.484-4.529,1.06-7.117,1.06-7.117s10.178,4.098,15.055,4.96c4.877,0.863,10.814,2.804,18.659,6.039
										c7.845,3.235,12.438,5.823,12.438,5.823"/>
								</g>
								<g>
									<g>
										<path style="fill:#FF9A6C;" d="M252.146,383.122c0,0-0.265-0.128-0.776-0.389c-0.527-0.263-1.286-0.642-2.278-1.137
											c-2.012-0.979-5.005-2.377-8.936-3.996c-3.937-1.595-8.773-3.557-14.593-5.158c-1.456-0.391-2.976-0.745-4.56-1.026
											c-1.602-0.298-3.208-0.761-4.849-1.268c-3.277-1.031-6.685-2.274-10.232-3.671l0.206-0.043
											c-1.183,1.378-1.671,3.409-1.38,5.338c0.168,0.97,0.374,1.975,1.051,2.695c0.672,0.729,1.541,1.305,2.465,1.784
											c1.857,0.958,3.914,1.638,6.031,2.219c2.122,0.571,4.324,1.045,6.574,1.402l1.921,0.305l-1.938,0.137
											c-5.932,0.42-12.178,0.863-18.658,1.322l0.054-0.01c-3.727,1.218-7.522,2.63-11.114,4.564
											c-0.891,0.493-1.765,1.027-2.571,1.648c-0.781,0.62-1.575,1.354-1.842,2.258c-0.251,0.949-0.205,2.054,0.588,2.621
											c0.768,0.562,1.873,0.676,2.863,0.602l-0.04,0.008c3.786-1.074,7.861-2.231,11.995-3.403l0.04-0.011l0.041,0.002
											c4.358,0.176,9.016,0.365,13.733,0.556l2.152,0.087l-2.111,0.427c-3.239,0.655-6.705,1.356-10.199,2.063
											c-1.37,0.277-2.736,0.553-4.097,0.828l0.048-0.014c-4.017,1.687-7.992,3.357-11.914,5.005
											c-0.835,0.479-1.546,1.33-2.102,2.168c-0.543,0.843-0.976,1.864-0.96,2.789c0.025,0.42,0.36,0.758,0.783,0.982
											c0.42,0.233,0.914,0.37,1.409,0.468c0.992,0.202,2.032,0.254,3.04,0.238l0.01,0.511c-0.769,0.044-1.566,0.44-2.073,1.05
											c-0.506,0.61-0.851,1.427-0.826,2.199c0.022,0.784,0.474,1.498,1.074,2.047c0.596,0.561,1.317,0.998,2.052,1.393
											c0.189,0.107,0.374,0.193,0.522,0.233c0.195,0.034,0.386,0.076,0.595,0.09c0.407,0.046,0.826,0.065,1.243,0.076
											c0.834,0.027,1.671,0.02,2.504,0.005c1.666-0.031,3.321-0.101,4.962-0.182c6.563-0.342,12.902-0.841,18.976-1.362
											l1.492-0.128l-1.382,0.574c-2.644,1.099-5.232,2.175-7.764,3.228l-0.026,0.011l-0.029,0.004
											c-2.849,0.425-5.64,0.89-8.321,1.502c-0.667,0.16-1.333,0.324-1.966,0.54c-0.636,0.204-1.221,0.495-1.636,0.964
											c-0.406,0.469-0.588,1.095-0.494,1.703c0.097,0.604,0.41,1.175,0.85,1.615c0.209,0.203,0.485,0.462,0.701,0.551
											c0.262,0.093,0.579,0.116,0.89,0.121c0.629,0.003,1.268-0.076,1.897-0.161c1.261-0.175,2.503-0.415,3.727-0.642
											c2.448-0.462,4.83-0.916,7.15-1.281c4.638-0.744,9.029-1.166,13.099-1.215c1.017-0.013,2.015,0.006,2.988,0.025
											c0.969-0.011,1.918,0.006,2.844-0.027c0.924-0.073,1.83-0.117,2.708-0.208c0.876-0.121,1.732-0.221,2.562-0.35
											c6.639-1.131,11.565-3.224,14.837-4.696c1.633-0.763,2.855-1.411,3.673-1.856c0.397-0.223,0.702-0.394,0.92-0.517
											c0.206-0.116,0.314-0.171,0.314-0.171s-0.393,0.279-1.199,0.75c-0.808,0.466-2.022,1.135-3.649,1.92
											c-3.262,1.515-8.184,3.655-14.853,4.83c-0.833,0.135-1.694,0.24-2.575,0.367c-0.884,0.097-1.795,0.146-2.725,0.224
											c-0.932,0.039-1.889,0.026-2.866,0.041c-0.972-0.015-1.963-0.029-2.976-0.012c-4.051,0.066-8.422,0.503-13.045,1.26
											c-2.313,0.372-4.687,0.832-7.136,1.302c-1.225,0.231-2.467,0.474-3.744,0.656c-0.639,0.087-1.285,0.171-1.956,0.17
											c-0.336-0.008-0.679-0.022-1.036-0.147c-0.194-0.085-0.338-0.191-0.463-0.299c-0.139-0.1-0.258-0.227-0.384-0.345
											c-0.488-0.487-0.853-1.13-0.968-1.842c-0.116-0.715,0.105-1.486,0.588-2.04c0.484-0.553,1.161-0.88,1.818-1.092
											c0.659-0.226,1.329-0.392,2.005-0.556c2.705-0.625,5.495-1.094,8.356-1.527l-0.054,0.015
											c2.53-1.057,5.116-2.138,7.758-3.242l0.11,0.447c-6.08,0.531-12.418,1.039-18.992,1.39
											c-1.644,0.084-3.303,0.155-4.978,0.188c-0.838,0.015-1.68,0.023-2.529-0.003c-0.425-0.012-0.85-0.029-1.283-0.078
											c-0.214-0.015-0.437-0.061-0.659-0.101c-0.262-0.074-0.457-0.177-0.639-0.277c-0.756-0.407-1.509-0.858-2.162-1.469
											c-0.65-0.591-1.205-1.434-1.234-2.396c-0.021-0.954,0.361-1.834,0.946-2.55c0.609-0.714,1.485-1.175,2.46-1.23l0.01,0.511
											c-1.059,0.016-2.108-0.035-3.162-0.246c-0.524-0.106-1.053-0.247-1.552-0.52c-0.485-0.25-1.004-0.73-1.049-1.386
											c-0.014-1.186,0.463-2.189,1.038-3.115c0.613-0.904,1.288-1.759,2.302-2.351c3.935-1.654,7.921-3.33,11.95-5.024
											l0.023-0.009l0.025-0.005c1.36-0.275,2.726-0.551,4.097-0.829c3.493-0.706,6.959-1.407,10.199-2.062l0.041,0.514
											c-4.716-0.193-9.375-0.383-13.733-0.561l0.08-0.01c-4.134,1.17-8.211,2.323-11.997,3.395l-0.024,0.007l-0.016,0.001
											c-1.102,0.073-2.259-0.017-3.227-0.705c-0.48-0.343-0.794-0.916-0.873-1.482c-0.112-0.574-0.006-1.129,0.106-1.663
											c0.347-1.133,1.211-1.869,2.021-2.525c0.839-0.645,1.732-1.189,2.638-1.689c3.651-1.959,7.45-3.365,11.211-4.589
											l0.025-0.008l0.029-0.002c6.48-0.448,12.727-0.88,18.66-1.29l-0.017,0.442c-2.276-0.366-4.481-0.846-6.621-1.427
											c-2.134-0.591-4.209-1.28-6.111-2.267c-0.945-0.495-1.849-1.089-2.576-1.882c-0.356-0.399-0.642-0.889-0.793-1.399
											c-0.155-0.496-0.265-1.001-0.347-1.509c-0.29-2.034,0.196-4.15,1.503-5.661l0.081-0.093l0.126,0.05
											c3.531,1.404,6.933,2.658,10.192,3.697c1.631,0.512,3.23,0.978,4.803,1.277c1.594,0.29,3.121,0.653,4.582,1.053
											c5.837,1.635,10.665,3.629,14.594,5.255c3.924,1.651,6.905,3.081,8.904,4.092c0.999,0.506,1.753,0.909,2.255,1.186
											C251.899,382.962,252.146,383.122,252.146,383.122z"/>
									</g>
								</g>
							</g>
						</g>
					</g>
					<g>
						<g>
							<g>
								<g>
									<path style="fill:#FF9A6C;" d="M220.367,401.517c-0.002,0.122-1.707,0.177-4.452,0.347
										c-2.745,0.168-6.528,0.495-10.672,1.131c-4.144,0.642-7.853,1.47-10.524,2.137c-2.671,0.665-4.316,1.127-4.353,1.01
										c-0.031-0.097,1.555-0.753,4.205-1.565c2.648-0.813,6.372-1.739,10.552-2.386c4.179-0.641,8.005-0.88,10.771-0.901
										C218.662,401.266,220.369,401.415,220.367,401.517z"/>
								</g>
							</g>
						</g>
					</g>
				</g>
				<g>
					<path style="fill:#FF725E;" d="M154.174,378.624l54.69-19.555c0,0-11.15-52.915-27.923-72.381
						c-15.612-18.117-22.067-19.3-28.049-15.816c-5.595,3.259-25.875,16.126-13.871,59.825
						C151.026,374.397,154.174,378.624,154.174,378.624z"/>
				</g>
				<g>
					<g>
						<g>
							<g>
								<path style="fill:#263238;" d="M254.681,429.381c0.007,0.027-0.318,0.135-0.944,0.317c-0.709,0.195-1.62,0.445-2.748,0.755
									c-2.393,0.629-5.879,1.456-10.23,2.274c-4.354,0.782-9.577,1.579-15.43,1.896c-5.838,0.281-12.354,0.209-18.996-1.29
									c-3.329-0.693-6.48-1.866-9.352-3.324c-1.456-0.703-2.764-1.613-4.054-2.485c-1.238-0.978-2.335-2.048-3.338-3.141
									c-3.988-4.4-7.029-8.784-9.607-12.435c-2.546-3.676-4.505-6.72-5.836-8.838c-0.616-1.009-1.114-1.824-1.501-2.459
									c-0.332-0.569-0.494-0.876-0.471-0.892c0.023-0.015,0.23,0.262,0.606,0.802c0.419,0.612,0.958,1.399,1.625,2.373
									c1.409,2.061,3.437,5.053,6.036,8.678c2.627,3.595,5.719,7.943,9.683,12.255c0.996,1.071,2.072,2.103,3.252,3.028
									c1.261,0.841,2.535,1.722,3.96,2.403c2.808,1.412,5.893,2.559,9.171,3.241c6.535,1.476,12.989,1.574,18.786,1.336
									c5.813-0.274,11.019-1.007,15.37-1.714c4.347-0.743,7.844-1.483,10.255-2.016c1.141-0.249,2.063-0.45,2.78-0.606
									C254.335,429.409,254.674,429.354,254.681,429.381z"/>
							</g>
						</g>
					</g>
				</g>
				<g>
					<g>
						<g>
							<path style="fill:#263238;" d="M213.553,369.111c-0.123,0.05-3.587-8.51-7.735-19.116c-4.15-10.61-18.962-36.16-18.839-36.21
								c0.123-0.05,15.135,25.42,19.285,36.029C210.412,360.421,213.676,369.061,213.553,369.111z"/>
						</g>
					</g>
				</g>
			</g>
			<g>
				<g>
					<path style="fill:#263238;" d="M293.641,287.65c0.015-0.01,0.14,0.145,0.364,0.45c0.253,0.355,0.571,0.801,0.961,1.348
						c0.836,1.17,1.987,2.902,3.39,5.057c2.747,4.335,6.438,10.459,9.349,17.773c2.924,7.314,4.404,14.321,5.234,19.387
						c0.401,2.54,0.684,4.602,0.829,6.032c0.068,0.668,0.124,1.213,0.168,1.646c0.033,0.377,0.041,0.576,0.023,0.578
						c-0.018,0.002-0.061-0.193-0.127-0.565c-0.07-0.43-0.157-0.97-0.264-1.633c-0.206-1.421-0.544-3.47-0.991-5.996
						c-0.922-5.039-2.45-11.991-5.355-19.257c-2.892-7.268-6.515-13.393-9.177-17.771c-1.36-2.176-2.463-3.936-3.246-5.14
						c-0.357-0.569-0.648-1.032-0.879-1.401C293.722,287.835,293.626,287.66,293.641,287.65z"/>
				</g>
			</g>
			<g>
				<g>
					<line style="fill:#FFBF9D;" x1="260.063" y1="411.381" x2="334.372" y2="415.16"/>
				</g>
				<g>
					<g>
						<path style="fill:#FF9A6C;" d="M334.372,415.16c-0.007,0.144-16.649-0.586-37.166-1.63c-20.524-1.044-37.15-2.006-37.143-2.15
							c0.007-0.144,16.646,0.586,37.17,1.63C317.75,414.054,334.38,415.017,334.372,415.16z"/>
					</g>
				</g>
			</g>
			<g>
				<g>
					<path style="fill:#FF9A6C;" d="M343.353,368.251c0.001,0.009-0.077,0.03-0.232,0.063c-0.186,0.036-0.412,0.079-0.688,0.133
						c-0.65,0.113-1.536,0.267-2.655,0.462c-2.353,0.399-5.678,0.964-9.768,1.658c-8.284,1.429-19.654,3.39-32.214,5.557
						c-12.584,2.172-23.983,4.099-32.248,5.408c-4.132,0.659-7.48,1.164-9.796,1.495c-1.125,0.154-2.016,0.276-2.67,0.365
						c-0.28,0.033-0.509,0.06-0.696,0.082c-0.157,0.016-0.238,0.019-0.24,0.01c-0.001-0.009,0.077-0.03,0.232-0.063
						c0.186-0.036,0.412-0.079,0.688-0.133c0.65-0.113,1.536-0.267,2.654-0.462c2.352-0.399,5.677-0.964,9.768-1.658
						c8.284-1.429,19.655-3.39,32.219-5.557c12.58-2.172,23.977-4.098,32.242-5.407c4.132-0.659,7.48-1.164,9.797-1.495
						c1.126-0.154,2.017-0.276,2.67-0.365c0.28-0.033,0.509-0.06,0.696-0.082C343.27,368.246,343.352,368.242,343.353,368.251z"/>
				</g>
			</g>
		</g>
	</g>
	<g>
		<g>
			<path style="fill:#FFBF9D;" d="M359.455,414.384"/>
		</g>
		<g>
			<g>
				<path style="fill:none;stroke:#FFE1D3;stroke-width:0.05;stroke-miterlimit:10;" d="M359.455,414.384"/>
			</g>
		</g>
	</g>
	<g>
		<g>
			<path style="fill:#FFBF9D;" d="M285.146,410.604"/>
		</g>
		<g>
			<g>
				<path style="fill:none;stroke:#FFE1D3;stroke-width:0.05;stroke-miterlimit:10;" d="M285.146,410.604"/>
			</g>
		</g>
	</g>
</g>
</svg>
